<?xml version="1.0" encoding="UTF-8"?>
<!DOCTYPE svg PUBLIC "-//W3C//DTD SVG 1.1//EN" "http://www.w3.org/Graphics/SVG/1.1/DTD/svg11.dtd">
<!-- Creator: CorelDRAW 2021 (64-Bit) -->
<svg xmlns="http://www.w3.org/2000/svg" xml:space="preserve" width="228.247mm" height="150.283mm" version="1.1" style="shape-rendering:geometricPrecision; text-rendering:geometricPrecision; image-rendering:optimizeQuality; fill-rule:evenodd; clip-rule:evenodd"
viewBox="0 0 22824.72 15028.32"
 xmlns:xlink="http://www.w3.org/1999/xlink"
 xmlns:xodm="http://www.corel.com/coreldraw/odm/2003">
 <defs>
  <style type="text/css">
   <![CDATA[
    .fil10 {fill:#FEFEFE;fill-rule:nonzero}
    .fil2 {fill:#F6BA9D;fill-rule:nonzero}
    .fil16 {fill:#F3A89D;fill-rule:nonzero}
    .fil3 {fill:#F29A6E;fill-rule:nonzero}
    .fil20 {fill:#F19483;fill-rule:nonzero}
    .fil5 {fill:#EA5A62;fill-rule:nonzero}
    .fil6 {fill:#E95157;fill-rule:nonzero}
    .fil8 {fill:#FBFCFB;fill-rule:nonzero}
    .fil18 {fill:#DB494E;fill-rule:nonzero}
    .fil1 {fill:#E1E1E0;fill-rule:nonzero}
    .fil9 {fill:#CA8E77;fill-rule:nonzero}
    .fil13 {fill:#C24246;fill-rule:nonzero}
    .fil11 {fill:#C36D53;fill-rule:nonzero}
    .fil14 {fill:#B97055;fill-rule:nonzero}
    .fil15 {fill:#A7583F;fill-rule:nonzero}
    .fil12 {fill:#B3B4B2;fill-rule:nonzero}
    .fil4 {fill:#3A616C;fill-rule:nonzero}
    .fil17 {fill:#2F4E58;fill-rule:nonzero}
    .fil0 {fill:#243840;fill-rule:nonzero}
    .fil7 {fill:#21343A;fill-rule:nonzero}
    .fil19 {fill:#202F36;fill-rule:nonzero}
   ]]>
  </style>
 </defs>
 <g id="Layer_x0020_1">
  <metadata id="CorelCorpID_0Corel-Layer"/>
  <path class="fil0" d="M3906.8 4471.91c0,13.12 -96.2,23.78 -214.8,23.78 -118.68,0 -214.84,-10.66 -214.84,-23.78 0,-13.12 96.16,-23.78 214.84,-23.78 118.6,0 214.8,10.66 214.8,23.78z"/>
  <path class="fil0" d="M4134.94 3887.53c13.13,0 23.75,97.62 23.75,217.95 0,120.44 -10.62,218.01 -23.75,218.01 -13.12,0 -23.77,-97.57 -23.77,-218.01 0,-120.33 10.65,-217.95 23.77,-217.95z"/>
  <path class="fil0" d="M4377.9 4457.9c0,-13.12 96.2,-23.77 214.81,-23.77 118.67,0 214.8,10.65 214.8,23.77 0,13.13 -96.13,23.78 -214.8,23.78 -118.61,0 -214.81,-10.65 -214.81,-23.78z"/>
  <path class="fil0" d="M4149.76 5042.28c-13.12,0 -23.74,-97.61 -23.74,-217.98 0,-120.4 10.62,-217.95 23.74,-217.95 13.12,0 23.78,97.55 23.78,217.95 0,120.37 -10.66,217.98 -23.78,217.98z"/>
  <path class="fil0" d="M4496.96 4791.63c-10.05,8.4 -52.42,-25.72 -94.58,-76.2 -42.19,-50.55 -68.19,-98.28 -58.13,-106.71 10.09,-8.4 52.42,25.71 94.61,76.23 42.16,50.48 68.19,98.25 58.1,106.68z"/>
  <path class="fil0" d="M4476.93 4128.94c9.31,9.24 -18.67,52.53 -62.41,96.69 -43.82,44.21 -86.89,72.5 -96.2,63.29 -9.32,-9.28 18.62,-52.56 62.44,-96.73 43.78,-44.17 86.82,-72.49 96.17,-63.25z"/>
  <path class="fil0" d="M3984.52 4297.78c-8.43,10.09 -49.04,-9.88 -90.7,-44.59 -41.73,-34.68 -68.69,-70.98 -60.33,-81.07 8.4,-10.09 49.01,9.84 90.74,44.55 41.66,34.68 68.65,71.02 60.29,81.11z"/>
  <path class="fil0" d="M3965.15 4589.81c9.74,8.85 -14.64,51.4 -54.4,95 -39.75,43.64 -79.83,71.83 -89.53,62.97 -9.7,-8.82 14.64,-51.36 54.43,-94.97 39.72,-43.64 79.84,-71.82 89.5,-63z"/>
  <path class="fil0" d="M16028.11 3341.19c0,7.4 -54.61,13.47 -121.96,13.47 -67.34,0 -121.95,-6.07 -121.95,-13.47 0,-7.48 54.61,-13.52 121.95,-13.52 67.35,0 121.96,6.04 121.96,13.52z"/>
  <path class="fil0" d="M16157.61 3009.4c7.48,0 13.51,55.42 13.51,123.75 0,68.37 -6.03,123.76 -13.51,123.76 -7.44,0 -13.48,-55.39 -13.48,-123.76 0,-68.33 6.04,-123.75 13.48,-123.75z"/>
  <path class="fil0" d="M16295.55 3333.21c0,-7.44 54.61,-13.47 121.95,-13.47 67.38,0 121.96,6.03 121.96,13.47 0,7.45 -54.58,13.51 -121.96,13.51 -67.34,0 -121.95,-6.06 -121.95,-13.51z"/>
  <path class="fil0" d="M16166.04 3664.96c-7.48,0 -13.51,-55.38 -13.51,-123.71 0,-68.37 6.03,-123.76 13.51,-123.76 7.45,0 13.48,55.39 13.48,123.76 0,68.33 -6.03,123.71 -13.48,123.71z"/>
  <path class="fil0" d="M16363.17 3522.69c-5.71,4.76 -29.77,-14.61 -53.69,-43.29 -23.95,-28.68 -38.73,-55.77 -33.02,-60.57 5.72,-4.76 29.78,14.61 53.73,43.29 23.92,28.68 38.7,55.77 32.98,60.57z"/>
  <path class="fil0" d="M16351.78 3146.45c5.26,5.26 -10.58,29.85 -35.45,54.93 -24.88,25.08 -49.29,41.13 -54.61,35.91 -5.26,-5.25 10.58,-29.84 35.45,-54.93 24.87,-25.08 49.32,-41.13 54.61,-35.91z"/>
  <path class="fil0" d="M16072.2 3242.3c-4.76,5.72 -27.8,-5.57 -51.47,-25.29 -23.67,-19.69 -38.98,-40.33 -34.25,-46.04 4.76,-5.75 27.83,5.61 51.5,25.29 23.67,19.72 39.02,40.33 34.22,46.04z"/>
  <path class="fil0" d="M16061.27 3408.11c5.5,5.01 -8.36,29.17 -30.91,53.94 -22.57,24.76 -45.33,40.74 -50.83,35.73 -5.51,-5.01 8.32,-29.14 30.87,-53.94 22.57,-24.73 45.33,-40.74 50.87,-35.73z"/>
  <path class="fil0" d="M10487.87 6115.96c0,5.71 -41.84,10.37 -93.48,10.37 -51.65,0 -93.49,-4.66 -93.49,-10.37 0,-5.68 41.84,-10.34 93.49,-10.34 51.64,0 93.48,4.66 93.48,10.34z"/>
  <path class="fil0" d="M10587.18 5861.68c5.71,0 10.34,42.44 10.34,94.82 0,52.43 -4.63,94.9 -10.34,94.9 -5.72,0 -10.37,-42.47 -10.37,-94.9 0,-52.38 4.65,-94.82 10.37,-94.82z"/>
  <path class="fil0" d="M10692.91 6109.89c0,-5.71 41.87,-10.34 93.48,-10.34 51.65,0 93.49,4.63 93.49,10.34 0,5.68 -41.84,10.34 -93.49,10.34 -51.61,0 -93.48,-4.66 -93.48,-10.34z"/>
  <path class="fil0" d="M10593.63 6364.21c-5.71,0 -10.37,-42.48 -10.37,-94.86 0,-52.39 4.66,-94.87 10.37,-94.87 5.68,0 10.34,42.48 10.34,94.87 0,52.38 -4.66,94.86 -10.34,94.86z"/>
  <path class="fil0" d="M10744.73 6255.13c-4.38,3.67 -22.83,-11.22 -41.17,-33.16 -18.34,-22.01 -29.67,-42.79 -25.29,-46.46 4.37,-3.64 22.82,11.22 41.17,33.19 18.34,21.98 29.7,42.76 25.29,46.43z"/>
  <path class="fil0" d="M10735.98 5966.7c4.06,4.06 -8.11,22.89 -27.16,42.12 -19.05,19.23 -37.79,31.54 -41.84,27.52 -4.06,-4.02 8.11,-22.86 27.16,-42.09 19.05,-19.23 37.82,-31.57 41.84,-27.55z"/>
  <path class="fil0" d="M10521.7 6040.18c-3.67,4.41 -21.34,-4.27 -39.47,-19.4 -18.17,-15.06 -29.92,-30.87 -26.25,-35.28 3.63,-4.37 21.31,4.31 39.48,19.4 18.13,15.1 29.88,30.91 26.24,35.28z"/>
  <path class="fil0" d="M10513.27 6167.29c4.24,3.84 -6.35,22.36 -23.67,41.34 -17.29,18.98 -34.75,31.26 -38.95,27.41 -4.23,-3.84 6.35,-22.36 23.68,-41.34 17.28,-18.98 34.74,-31.26 38.94,-27.41z"/>
  <path class="fil1" d="M15454.52 6511.46c0,7.44 -54.57,13.47 -121.95,13.47 -67.38,0 -121.96,-6.03 -121.96,-13.47 0,-7.45 54.58,-13.51 121.96,-13.51 67.38,0 121.95,6.06 121.95,13.51z"/>
  <path class="fil1" d="M15584.03 6179.71c7.44,0 13.51,55.38 13.51,123.71 0,68.37 -6.07,123.76 -13.51,123.76 -7.44,0 -13.51,-55.39 -13.51,-123.76 0,-68.33 6.07,-123.71 13.51,-123.71z"/>
  <path class="fil1" d="M15721.97 6503.52c0,-7.48 54.61,-13.51 121.95,-13.51 67.38,0 121.96,6.03 121.96,13.51 0,7.44 -54.58,13.48 -121.96,13.48 -67.34,0 -121.95,-6.04 -121.95,-13.48z"/>
  <path class="fil1" d="M15592.5 6835.27c-7.48,0 -13.52,-55.42 -13.52,-123.75 0,-68.33 6.04,-123.76 13.52,-123.76 7.4,0 13.44,55.43 13.44,123.76 0,68.33 -6.04,123.75 -13.44,123.75z"/>
  <path class="fil1" d="M15789.56 6692.96c-5.72,4.76 -29.74,-14.6 -53.7,-43.25 -23.95,-28.68 -38.73,-55.81 -32.98,-60.61 5.75,-4.76 29.77,14.61 53.73,43.29 23.95,28.68 38.7,55.77 32.95,60.57z"/>
  <path class="fil1" d="M15778.2 6316.72c5.29,5.26 -10.59,29.85 -35.46,54.93 -24.87,25.08 -49.28,41.14 -54.61,35.91 -5.25,-5.25 10.59,-29.84 35.46,-54.92 24.83,-25.05 49.32,-41.14 54.61,-35.92z"/>
  <path class="fil1" d="M15498.62 6412.57c-4.73,5.75 -27.8,-5.57 -51.47,-25.29 -23.67,-19.68 -38.98,-40.29 -34.22,-46.04 4.73,-5.71 27.8,5.61 51.51,25.3 23.67,19.72 38.98,40.32 34.18,46.03z"/>
  <path class="fil1" d="M15487.69 6578.42c5.46,5 -8.37,29.13 -30.91,53.9 -22.58,24.8 -45.33,40.78 -50.87,35.77 -5.47,-5.01 8.36,-29.17 30.9,-53.94 22.58,-24.76 45.37,-40.78 50.88,-35.73z"/>
  <path class="fil1" d="M9025.61 3362.6l15.84 38.03c27.69,66.5 80.82,119.17 147.56,146.22l41.35 16.8 -39.69 16.12c-67.73,27.48 -121.39,81.28 -148.73,149.05l-11.18 27.73 -16.76 -34.82c-30.44,-63.47 -84.52,-112.47 -150.63,-136.6l-36.06 -13.16 47.13 -22.82c59.3,-28.75 106.05,-78.21 131.38,-139.03l19.79 -47.52z"/>
  <path class="fil1" d="M2829.81 6217.38l10.53 25.3c18.4,44.2 53.7,79.2 98.07,97.19l27.49 11.14 -26.39 10.73c-45,18.27 -80.67,54.01 -98.82,99.06l-7.44 18.45 -11.14 -23.18c-20.25,-42.16 -56.17,-74.75 -100.11,-90.77l-23.97 -8.75 31.33 -15.17c39.41,-19.12 70.47,-51.96 87.3,-92.39l13.15 -31.61z"/>
  <path class="fil1" d="M18441.74 3756.55l10.55 25.29c18.38,44.2 53.69,79.2 98.04,97.19l27.51 11.15 -26.42 10.72c-44.98,18.28 -80.65,54.01 -98.78,99.06l-7.48 18.45 -11.11 -23.17c-20.25,-42.16 -56.16,-74.76 -100.12,-90.77l-23.95 -8.75 31.29 -15.17c39.44,-19.12 70.52,-51.97 87.31,-92.4l13.16 -31.6z"/>
  <path class="fil0" d="M18488.84 4825.74l15.84 38.07c27.69,66.46 80.82,119.13 147.56,146.23l41.38 16.79 -39.72 16.08c-67.7,27.52 -121.39,81.28 -148.69,149.05l-11.19 27.77 -16.75 -34.86c-30.48,-63.43 -84.57,-112.46 -150.68,-136.56l-36.01 -13.16 47.09 -22.82c59.34,-28.75 106.05,-78.21 131.41,-139.03l19.76 -47.56z"/>
  <path class="fil0" d="M11970.49 3131.71l7.44 17.81c12.99,31.19 37.89,55.92 69.18,68.62l19.41 7.86 -18.59 7.59c-31.75,12.87 -56.94,38.1 -69.78,69.92l-5.26 13.02 -7.87 -16.37c-14.28,-29.74 -39.65,-52.74 -70.66,-64.07l-16.9 -6.17 22.12 -10.69c27.8,-13.51 49.71,-36.72 61.6,-65.23l9.31 -22.29z"/>
  <path class="fil0" d="M7052.7 6056.02l9.56 22.97c16.72,40.14 48.82,71.93 89.11,88.3l24.98 10.12 -23.99 9.74c-40.89,16.58 -73.27,49.07 -89.78,89.99l-6.78 16.76 -10.09 -21.03c-18.41,-38.31 -51.04,-67.91 -90.98,-82.48l-21.76 -7.93 28.46 -13.8c35.81,-17.35 64.03,-47.23 79.31,-83.96l11.96 -28.68z"/>
  <path class="fil0" d="M6114.24 6699.56c-5.96,113.31 -153.35,264.19 -107.7,368.12 84.03,191.28 35.73,419.95 -73.31,598.17 -109.01,178.23 -271.57,316.13 -431.27,450.82 8.15,-278.41 -16.19,-557.81 -72.43,-830.65 -17.6,-85.45 -46.32,-180.77 -124.49,-219.54 -101.07,-50.13 -229.63,22.37 -333.24,-22.36 -110.42,-47.73 -132.78,-198.69 -225.92,-274.89 -84.2,-68.89 -208.17,-61.56 -311.29,-26.91 -103.15,34.67 -198.36,92.6 -304.55,116.27 -106.22,23.71 -234.32,2.54 -293.09,-89 -36.3,-56.55 -10.16,-21.98 -44.8,-79.52 0,0 -207.19,7.05 -278.28,-233.86 0,0 -97.38,-267.65 117.94,-386.04 0,0 48.97,-483.77 535.8,-266.1 139.77,62.47 305.26,-139.1 441.75,-69.75 113.56,57.75 147.39,215.55 260.91,273.34 130.32,66.32 282.16,-32.18 428.28,-38.46 187.29,-8.04 361.56,167.29 352.35,354.54 0,0 22.97,-96.62 181.19,-54.01 158.25,42.58 293.76,209.1 282.15,429.83z"/>
  <path class="fil2" d="M5908.04 7478.53c1.34,-54.61 -5.61,-110.49 -29.77,-159.46 -20.36,-41.24 -96.74,-135.08 -181.01,-140.76l12.38 -498.54c2.04,-102.87 -75,-190.22 -177.31,-201.05l-977.69 -103.4c-336.86,-35.63 -635.1,216.71 -656.38,554.78 -23.67,375.64 -37.74,835.13 6.74,1115.41 89.5,563.53 521.41,635.25 521.41,635.25l-10.55 393.7c-16.58,419.52 297.36,672.01 621.31,672.01 327.98,0 622.94,-279.55 613.48,-694.87l31.58 -1268.87c53.13,-4.09 105.97,-30.06 142.73,-69.53 57.86,-62.09 81.03,-149.83 83.08,-234.67z"/>
  <path class="fil0" d="M4116.81 7235.89c-1.38,38.17 29.85,70.76 69.67,72.95 39.76,2.12 73.14,-27.02 74.51,-65.19 1.34,-38.14 -29.84,-70.8 -69.64,-72.96 -39.83,-2.15 -73.2,27.03 -74.54,65.2z"/>
  <path class="fil0" d="M3997.92 7169.18c8.97,9.38 63.75,-31.12 141.5,-30.91 77.69,-0.91 134.76,39.09 143.2,29.6 4.16,-4.27 -4.98,-21.24 -29.81,-39.37 -24.49,-17.99 -66.22,-35.49 -114.66,-35.31 -48.43,0.25 -89.18,18.1 -112.6,36.37 -23.92,18.31 -32.04,35.38 -27.63,39.62z"/>
  <path class="fil0" d="M4867.52 7250.39c-1.37,38.17 29.85,70.8 69.68,72.95 39.75,2.12 73.16,-27.02 74.5,-65.16 1.34,-38.17 -29.84,-70.84 -69.64,-72.95 -39.82,-2.19 -73.2,27.02 -74.54,65.16z"/>
  <path class="fil0" d="M4762.39 7183.68c9,9.42 63.79,-31.08 141.54,-30.87 77.64,-0.95 134.76,39.09 143.19,29.56 4.13,-4.2 -4.9,-21.24 -29.84,-39.33 -24.45,-18.03 -66.19,-35.53 -114.66,-35.32 -48.43,0.25 -89.18,18.07 -112.6,36.34 -23.85,18.34 -32,35.42 -27.63,39.62z"/>
  <path class="fil0" d="M4480.14 7760.43c0.38,-4.44 -47.95,-12.77 -126.3,-22.79 -19.86,-2.04 -38.66,-5.99 -42.01,-19.54 -4.66,-14.36 3.63,-35.74 13.26,-58.88 18.66,-48.05 38.21,-98.42 58.74,-151.2 81.56,-215.3 140.58,-392.36 131.9,-395.57 -8.71,-3.21 -81.88,168.73 -163.44,384.03 -19.61,53.1 -38.38,103.69 -56.27,152.12 -7.51,22.54 -20.42,48.16 -10.26,77.97 5.32,14.78 19.89,25.57 32.63,29.03 12.73,3.84 23.92,4.06 33.72,4.69 78.85,4.23 127.74,4.55 128.03,0.14z"/>
  <path class="fil3" d="M4426.41 8680.76c0,0 379.16,24.45 754.77,-201.33 0,0 -195.3,424.04 -759.29,371.3l4.52 -169.97z"/>
  <path class="fil0" d="M4727.43 7047.5c7.66,21.14 85.31,11.12 176.57,22.12 91.44,9.18 165.03,35.88 177.13,16.9 5.4,-9.07 -7.41,-28.93 -37.18,-49.42 -29.5,-20.46 -76.56,-39.87 -131.31,-45.97 -54.78,-6 -104.91,2.68 -138.15,16.23 -33.51,13.51 -50.37,30.09 -47.06,40.14z"/>
  <path class="fil0" d="M3985.33 6988.17c13.69,17.67 67.28,-0.67 131.69,-1.52 64.38,-3.1 118.99,11.85 131.52,-6.6 5.54,-8.99 -3.07,-26.67 -26.92,-43.39 -23.46,-16.65 -62.76,-30.3 -107.03,-28.96 -44.28,1.41 -82.62,17.43 -105.02,35.52 -22.79,18.17 -30.27,36.34 -24.24,44.95z"/>
  <path class="fil3" d="M4497.11 8200.52c-1.45,-1.73 5.43,-11.11 21.2,-20.99 15.63,-9.84 40.71,-18.73 69.32,-18.91 28.61,-0.07 53.76,8.58 69.5,18.31 15.83,9.7 22.82,19.05 21.34,20.78 -3.04,4.38 -39.05,-21.62 -90.77,-20.67 -51.68,-0.5 -87.49,25.82 -90.59,21.48z"/>
  <path class="fil3" d="M5645.71 7628.53c-0.63,-3.18 23.29,-5.79 53.38,-26.07 29.46,-19.3 65.05,-61.1 65.3,-115.96 0.95,-54.72 -29.56,-99.94 -58.35,-120.12 -29.21,-21.84 -53.83,-18.13 -53.83,-20.85 -1.66,-2.15 26.03,-11.46 60.99,10.02 33.94,19.44 70.63,69.18 69.57,131.23 -0.25,30.59 -10.97,59.16 -26,80.58 -15.03,21.55 -33.76,36.76 -50.84,46.18 -34.85,19.05 -60.43,16.79 -60.22,14.99z"/>
  <path class="fil0" d="M3792.15 6240.88c-91.09,243.45 125.2,420.05 293.72,459.38 235.59,54.97 486.34,-93.76 647.42,-30.48 120.19,47.24 233.82,140.23 361.6,121.43 62.09,-9.1 123.36,-44.84 183.97,-28.36 77.19,20.95 108.59,115.04 106.75,195.01 -2.26,98.78 -35.52,196.75 -23.04,294.75 12.49,98 100.02,199.35 195.37,173.42 92.75,-25.25 152.33,-116.41 160.24,-212.19 11.18,-135.64 -13.55,-297.39 -6.88,-433.35 5.85,-119.95 6.17,-251.92 -70.17,-344.67 -76.66,-93.06 -206.94,-117.9 -326.39,-134.3 -504.09,-69.18 -1014.03,-96.03 -1522.59,-80.12l0 19.48z"/>
  <path class="fil4" d="M3495.37 6292.88c0,0 -3.92,-8.33 -5,-25.44 -1.14,-16.86 0.61,-43.18 14.82,-72.88 14.07,-29.04 40.83,-62.87 85.03,-80.82 21.87,-8.96 48.15,-11.61 74.26,-8.4 26.18,2.75 52.81,9.63 80.57,11.18 27.66,2.01 56.34,-4.76 83.22,-18.55 27.13,-13.55 52.04,-34.15 77.37,-55.99 25.29,-21.98 51.01,-45.93 80.75,-67.38 29.88,-21.1 65.23,-38.56 103.86,-45.37 77.4,-15.24 160.76,3.81 235.83,40.11 75.67,37.33 141.99,93.46 209.02,149.19 67.1,55.35 133.21,110.78 208.35,140.62 37.32,14.57 76.73,21.87 114.62,17.43 37.99,-4.27 73.83,-18.28 107.28,-34.79 66.5,-33.65 129.11,-73.97 196.32,-90.45 66.14,-17.71 131.97,-19.54 188.91,-5.96 57.22,12.91 104.21,41.56 137.27,73.84 33.26,32.45 53.62,67.77 65.26,98.03 11.29,30.52 14.43,55.99 14.36,72.96 0.63,8.5 -0.6,14.99 -0.78,19.3 -0.39,4.37 -0.77,6.56 -1.09,6.52 -2.89,0.42 4.66,-36.93 -19.16,-96.17 -12.31,-28.96 -32.91,-62.58 -65.68,-93.2 -32.67,-30.48 -77.83,-56.94 -133,-68.58 -54.86,-12.28 -118.25,-9.81 -182.04,7.97 -64.73,16.48 -124.74,55.81 -192.86,90.91 -34.15,17.08 -71.72,32.25 -112.85,37.08 -41.14,5.01 -83.79,-2.86 -123.09,-18.13 -79.23,-31.33 -146.26,-87.88 -213.57,-143.26 -67.03,-55.81 -132.43,-111.09 -205.17,-147.15 -72.39,-35.31 -152.26,-53.55 -224.76,-39.65 -73.87,12.13 -127.03,64.03 -177.83,107.67 -25.83,21.8 -51.76,42.93 -80.93,57.11 -28.79,14.43 -60.78,21.52 -90.42,18.88 -29.53,-2.19 -55.98,-9.56 -81.14,-12.53 -25.08,-3.49 -48.64,-1.44 -69.21,6.35 -41.38,15.7 -67.93,47.1 -82.29,74.44 -14.6,27.94 -17.47,53.06 -17.54,69.53 -0.13,16.69 2.45,25.37 1.31,25.58z"/>
  <path class="fil4" d="M3768.09 6685.06c0,0 -8.18,4.09 -24.66,1.66 -15.94,-2.54 -40.43,-13.55 -57.11,-41.07 -16.66,-27.3 -20.64,-67.73 -13.3,-110.8 6.73,-43.43 24.83,-91.69 57.57,-136.67 32.63,-44.77 81.7,-85.51 143.58,-107.91 61.24,-22.65 135.11,-27.77 205.81,-5.19 70.77,22.3 134.66,66.64 197.94,112.32 63.36,45.27 129.33,94.09 207.58,116.39 78.07,23.03 160.27,11.25 233.08,-12.84 73.48,-24.45 139.66,-60.47 201.96,-96.28 62.38,-35.66 122.07,-70.13 181.58,-95.49 59.41,-25.23 118.21,-42.48 173.88,-45.02 111.52,-5.4 198.62,37.61 241.69,81.28 22.4,21.56 33.8,43.18 41.52,57.22 6.11,15.03 9,22.93 8.4,23.14 -2.33,1.49 -10.72,-33.65 -54.86,-75.17 -43.14,-40.71 -128.3,-80.33 -235.97,-73.49 -53.34,3.18 -110.67,20.68 -168.59,46.01 -58.14,25.5 -116.95,60.07 -179.21,96.2 -62.13,36.23 -129.33,73.34 -204.76,98.7 -74.64,24.98 -160.93,37.75 -243.73,13.45 -82.66,-23.68 -149.86,-74.16 -213.08,-119.49 -63.08,-45.9 -125.27,-89.15 -192.51,-110.77 -66.89,-21.84 -136.88,-17.61 -195.58,3.35 -59.16,20.78 -106.29,58.84 -138.29,101.35 -32.1,42.65 -50.41,88.87 -57.92,130.64 -8.01,41.69 -5.08,79.72 9.41,105.55 14.43,25.89 36.84,37.46 51.65,40.95 15.31,3.5 23.81,0.99 23.92,1.98z"/>
  <path class="fil4" d="M5928.43 7625.28c-1.41,-1.16 12.91,-16.75 31.33,-49.49 18.31,-32.42 39.19,-84.21 42.19,-150.92 1.27,-33.2 -1.69,-69.99 -13.37,-107.14 -10.97,-37.36 -31.54,-74.12 -56.55,-110.84 -24.66,-36.97 -53.94,-74.08 -79.73,-116.42 -25.19,-41.91 -48.44,-91.9 -46.11,-146.89 0.92,-55.21 26.6,-102.7 46.99,-146.2 21.31,-43.6 39.23,-86.64 39.58,-129.99 2.09,-87.49 -47.8,-161.12 -104.14,-193.68 -57.29,-34.04 -114.93,-34.82 -151.13,-29.67 -37.11,5.47 -55.95,15.77 -56.65,13.97 -0.28,-0.56 4.27,-3.17 13.33,-7.72 9.25,-3.85 23.15,-9.71 42.09,-13.3 37.04,-7.45 97.19,-9.11 158.89,25.47 60.96,33.37 115.78,110.91 114.51,205.24 0.11,47.28 -19.12,93.7 -40.21,137.41 -20.5,43.96 -44.31,89.29 -44.91,138.96 -2.19,49.74 18.87,96.27 43.18,137.12 24.76,41.21 53.66,78.43 78.38,116.31 25.02,37.54 46.15,76.31 57.12,115.93 11.57,39.23 13.86,77.71 11.71,112.11 -4.83,69.25 -28.4,121.85 -49,153.92 -10.12,16.3 -19.58,27.87 -26.39,35.24 -6.88,7.37 -10.65,11.01 -11.11,10.58z"/>
  <path class="fil0" d="M4449.27 7213.56c-2.4,0.14 -0.46,-32.35 -14.82,-87.74 -14.22,-54.29 -50.69,-133.98 -132.43,-195.51 -40.46,-30.02 -91.37,-55.53 -150,-65.65 -58.25,-9.77 -123.86,-7.8 -186.27,16.09 -31.4,10.97 -61.7,27.51 -89.5,48.4 -28.15,20.46 -53.66,45.86 -74.72,75.28 -43.49,57.93 -67.98,132.36 -68.68,209.06 0.67,76.72 25.15,151.2 68.68,209.12 21.03,29.42 46.57,54.82 74.72,75.32 27.8,20.89 58.1,37.43 89.5,48.4 62.41,23.88 128.06,25.9 186.3,16.09 58.6,-10.16 109.54,-35.63 150,-65.69 81.71,-61.49 118.18,-141.22 132.4,-195.47 14.36,-55.35 12.42,-87.88 14.82,-87.7 0,0 4.58,32.38 -7.87,89.43 -12.38,55.88 -47.83,138.92 -131.48,204.08 -41.41,31.82 -94.05,59.05 -155.08,70.34 -60.61,10.9 -129.22,9.39 -194.87,-15.17 -32.99,-11.29 -64.88,-28.43 -94.16,-50.23 -29.63,-21.35 -56.59,-47.91 -78.81,-78.71 -45.86,-60.78 -71.86,-139.13 -72.53,-219.81 0.7,-80.65 26.7,-159 72.56,-219.71 22.23,-30.84 49.18,-57.4 78.78,-78.74 29.32,-21.77 61.17,-38.92 94.16,-50.2 65.61,-24.56 134.23,-26.07 194.83,-15.17 61.04,11.25 113.67,38.48 155.12,70.3 83.61,65.16 119.1,148.24 131.45,204.09 12.48,57.08 7.9,89.5 7.9,89.5z"/>
  <path class="fil0" d="M5277.8 7213.56c-2.43,0.14 -0.46,-32.35 -14.81,-87.74 -14.22,-54.29 -50.73,-133.98 -132.44,-195.51 -40.5,-30.02 -91.37,-55.53 -150.03,-65.65 -58.21,-9.77 -123.86,-7.8 -186.23,16.09 -31.4,10.97 -61.71,27.51 -89.5,48.4 -28.16,20.46 -53.66,45.86 -74.72,75.28 -43.5,57.93 -67.98,132.36 -68.69,209.06 0.67,76.72 25.15,151.2 68.65,209.12 21.06,29.42 46.6,54.82 74.76,75.32 27.79,20.89 58.1,37.43 89.5,48.4 62.4,23.88 128.05,25.9 186.26,16.09 58.63,-10.16 109.54,-35.63 150.04,-65.69 81.7,-61.49 118.18,-141.22 132.4,-195.47 14.35,-55.35 12.38,-87.88 14.81,-87.7 0,0 4.59,32.38 -7.9,89.43 -12.35,55.88 -47.8,138.92 -131.44,204.08 -41.42,31.82 -94.06,59.05 -155.09,70.34 -60.64,10.9 -129.25,9.39 -194.87,-15.17 -32.99,-11.29 -64.88,-28.43 -94.16,-50.23 -29.67,-21.35 -56.58,-47.91 -78.81,-78.71 -45.86,-60.78 -71.86,-139.13 -72.53,-219.81 0.71,-80.65 26.71,-159 72.57,-219.71 22.22,-30.84 49.14,-57.4 78.77,-78.74 29.28,-21.77 61.17,-38.92 94.16,-50.2 65.62,-24.56 134.23,-26.07 194.84,-15.17 61.03,11.25 113.66,38.48 155.08,70.3 83.64,65.16 119.13,148.24 131.48,204.09 12.49,57.08 7.9,89.5 7.9,89.5z"/>
  <path class="fil0" d="M4572.07 7152.91l0.39 -0.98 0.42 -0.46 0.28 -0.21 0.15 -0.15 0.07 -0.07 0.03 0 0 -0.03 0 3.77 -0.03 0 -1.66 0.92 -0.53 0.21 -0.28 0.11 -0.14 0.07 0 -6.39 0.03 0 0.07 -0.03 1.2 -0.43 0 7.31c-9.88,3.24 -32.67,5.54 -59.23,5.54 -35.7,0 -64.59,-4.13 -64.59,-9.18 0,-5.08 28.89,-9.2 64.59,-9.2 26.56,0 49.35,2.25 59.23,5.53l0 7.31 -1.2 -0.43 -0.07 0 -0.03 -0.03 0 -6.39 0 0.04 0.14 0.03 0.28 0.11 0.53 0.25 1.66 0.88 0.03 0 0 3.77 -0.03 -0.03 -0.07 -0.07 -0.15 -0.11 -0.28 -0.25 -0.42 -0.45 -0.39 -0.96z"/>
  <path class="fil0" d="M5713.34 7232.75c-0.35,5.08 -99.83,2.08 -222.14,-6.67 -122.38,-8.78 -221.26,-19.97 -220.91,-25.05 0.39,-5.08 99.83,-2.08 222.21,6.71 122.31,8.78 221.23,19.96 220.84,25.01z"/>
  <path class="fil0" d="M4804.37 7740.85c1.98,-0.38 8.22,21.45 2.62,57.05 -5.23,34.96 -25.55,83.92 -68.83,119.52 -43.46,35.38 -95.5,45.65 -130.78,43.85 -35.98,-1.55 -56.16,-12 -55.38,-13.87 0.77,-2.92 21.66,2.69 55.24,0.89 33.16,-1.56 80.01,-13.09 119.28,-45.12 39.12,-32.14 59.69,-75.78 67.77,-107.95 8.43,-32.57 7.05,-54.19 10.08,-54.37z"/>
  <path class="fil0" d="M3406.11 10273.76c0.31,0 0.62,3.81 0.92,11.29 0.25,8.47 0.54,19.4 0.91,33.13 0.43,30.37 1.01,73.09 1.74,127.49 0.63,111.94 1.5,271.78 2.62,468.77 1.21,395.92 -12.18,942.93 -42.87,1546.18 -32.81,602.73 -62.51,1148.27 -84.08,1544.54 -9.85,196.74 -17.84,356.37 -23.44,468.15 -2.78,54.32 -4.97,96.97 -6.53,127.27 -0.9,13.73 -1.6,24.63 -2.15,33.09 -0.58,7.41 -1.05,11.26 -1.36,11.26 -0.33,-0.04 -0.5,-3.89 -0.51,-11.33 0.08,-8.46 0.18,-19.4 0.33,-33.16 0.73,-30.34 1.75,-73.02 3.07,-127.42 3.11,-110.63 8.83,-270.72 17.62,-468.49 16.68,-395.5 48.57,-941.49 78.71,-1544.81 30.66,-603.05 46.12,-1149.57 48.21,-1545.31 1.37,-196.99 2.45,-356.8 3.23,-468.74 0.73,-54.4 1.31,-97.12 1.72,-127.49 0.37,-13.73 0.69,-24.66 0.91,-33.13 0.3,-7.48 0.62,-11.29 0.95,-11.29z"/>
  <path class="fil5" d="M6813.9 9666.03c-189.86,-219.07 -560.63,-251.25 -724.96,-132.32 -164.32,118.88 -255.79,320.92 -272.27,523.09 -16.47,202.18 35.03,404.71 112.25,592.25 123.72,300.63 306.85,543.8 580.29,853.54l704.74 925.24 -1360.03 1327.78 563.57 889.32 1156.01 -931.38 956.03 -1013.31 -1715.63 -3034.21z"/>
  <path class="fil0" d="M1896.97 12517.95c-0.93,-1.72 25.46,-18.77 73.21,-35.34 47.5,-16.69 117.29,-30.31 194.65,-26.21 77.38,4.3 145.26,25.37 190.69,47.1 45.68,21.62 70.06,41.41 68.95,43.03 -1.63,2.69 -28.24,-13.05 -74.06,-31.11 -45.68,-18.17 -111.72,-36.51 -186.59,-40.71 -74.85,-3.89 -142.47,7.17 -189.85,20.29 -47.5,13 -75.66,25.75 -77,22.95z"/>
  <path class="fil5" d="M6351.73 13291.35l-24.91 -512.79 132.86 -1346.42c264.51,303.5 754.27,905.44 754.27,995.65l-862.22 863.56zm-3039.27 -55.07l-928.25 -692.71 1002.64 -1037.35 -74.39 1730.06zm3685.06 -3362.36l-0.67 1.31c-474.73,-629.25 -985.52,-577.39 -1245.9,-584.87l0 -276.3c-192.3,0 -454.98,173.25 -590.9,297.18l-134.17 184.4c-71.08,-204.15 -232.76,-365.72 -438.96,-430.64 -124.42,-39.12 -224.89,-50.94 -224.89,-50.94l0 247.12c-637.61,17.78 -978.8,192.16 -1404.83,685.42 -22.05,25.54 -65.36,68.79 -115.01,117.82l-1261.07 1480.65c-257.55,284.96 -492.15,677.33 -438.48,1057.7 60.51,428.7 310.47,711.13 789.11,1034.52l1326.47 859.79 -6.35 147.85 3165.62 0c0,0 2146.65,-1583.59 2199.25,-2170.19 41.59,-463.44 -697.8,-1445.72 -1619.22,-2600.82z"/>
  <path class="fil0" d="M5750.95 9290.36c1.06,0.67 -7.55,15.59 -23.99,41.98 -16.69,26.21 -41.13,63.99 -73.13,109.5 -63.68,91.05 -157.41,213.89 -277.71,334.33 -29.95,30.44 -60.46,58.88 -90.06,86.11l-14.82 13.58 -0.25 -20.1c-0.91,-68.48 -18.13,-131.94 -42.86,-184.26 -24.73,-52.53 -56.83,-93.94 -87.03,-124.6 -30.2,-30.8 -58.24,-52.56 -80.93,-57.12 -12.41,-2.47 -21.2,0.04 -26.77,2.54 -4.76,2.12 -7.2,4.24 -7.52,3.32 -0.42,0.35 1.49,-2.93 6.39,-6.21 5.5,-3.67 14.82,-7.34 28.96,-5.89 25.79,3.18 56.23,24.91 88.02,55 32.17,30.34 66.43,72.25 93.03,126.15 26.56,53.69 45.29,119.38 46.71,190.82l-15.07 -6.53c29.25,-27.23 59.44,-55.56 89.18,-85.76 119.35,-119.52 214.03,-240.17 280.22,-329 31.18,-42.47 57.25,-78.03 77.75,-105.9 18.24,-25.12 28.82,-38.7 29.88,-37.96z"/>
  <path class="fil0" d="M4362.03 9261.18c1.02,-0.74 10.86,10.94 27.76,32.67 18.91,25.01 42.4,56.13 70.24,92.99 58.63,79.03 138.6,188.88 226.02,310.91 19.51,27.34 38.6,54.08 56.98,79.83l-15.88 2.33c20.64,-59.9 41.88,-116.81 71.26,-163.16 28.65,-46.78 66.22,-81 102.03,-100.4 35.87,-19.93 69.18,-25.75 91.44,-25.65 22.47,0.07 34.22,4.2 34,4.94 -0.17,1.45 -12.2,-0.42 -33.65,1.48 -21.38,1.84 -52.53,9.17 -85.83,29.46 -33.45,19.97 -67.77,52.95 -94.48,98.46 -27.34,45.05 -47.44,100.75 -67.69,160.76l-5.61 16.58 -10.27 -14.29c-18.48,-25.71 -37.64,-52.35 -57.22,-79.65 -87.45,-121.99 -165.73,-233.08 -221.69,-314.01 -25.96,-38.24 -47.87,-70.49 -65.44,-96.45 -15.13,-22.97 -23.03,-36.05 -21.97,-36.8z"/>
  <path class="fil6" d="M5220.12 10071.76c-6.95,0 -13.9,-1.2 -20.7,-3.88 -48.3,-19.12 -42.37,-87.7 -35.6,-139.17 19.72,-149.93 -31.96,-324.77 -137.72,-432.86 0.03,0 0.07,0 0.14,0 0.84,0 3.17,-1.76 7.16,-3.53 3.95,-1.76 9.52,-3.56 16.86,-3.56 3.03,0 6.32,0.32 9.91,1.02 22.69,4.56 50.73,26.32 80.93,57.12 30.2,30.66 62.3,72.07 87.03,124.6 24.73,52.32 41.95,115.78 42.86,184.26l0.25 20.1 14.82 -13.58c29.6,-27.23 60.11,-55.67 90.06,-86.11 115.92,-116.06 207.19,-234.35 270.65,-324.27 29.78,-33.69 59.2,-67.21 88.02,-100.48 10.02,-11.57 21.56,-23.95 36.8,-25.57 1.05,-0.14 2.11,-0.18 3.17,-0.18 20.18,0 36.62,20.82 38.17,41.38 1.69,21.73 -8.32,42.41 -18.34,61.67 -121.71,233.64 -292.31,441.68 -497.56,606.81 -22.33,17.99 -49.74,36.23 -76.91,36.23z"/>
  <path class="fil7" d="M5271.24 9875.86l-0.25 -20.1c-0.91,-68.48 -18.13,-131.94 -42.86,-184.26 -24.73,-52.53 -56.83,-93.94 -87.03,-124.6 -30.2,-30.8 -58.24,-52.56 -80.93,-57.12 -3.59,-0.7 -6.88,-1.02 -9.91,-1.02 -7.34,0 -12.91,1.8 -16.86,3.56 -3.99,1.77 -6.32,3.53 -7.16,3.53 -0.07,0 -0.11,0 -0.14,0 -0.07,-0.07 -0.15,-0.14 -0.22,-0.21l0 0c8.82,-6.03 18.03,-8.75 27.59,-8.75 44.56,0 96.2,59.23 144.15,118.29 58.2,71.75 87.1,162.49 81.52,260.74 117.83,-136 245.82,-276.33 367.63,-414.02 -63.46,89.92 -154.73,208.21 -270.65,324.27 -29.95,30.44 -60.46,58.88 -90.06,86.11l-14.82 13.58zm17.75 -20.35l0 0z"/>
  <path class="fil0" d="M6379.25 14585.97c-0.43,0.29 -4.17,-4.79 -11.01,-14.81 -7.52,-11.36 -17.25,-26.03 -29.46,-44.41 -26.14,-40.64 -62.62,-97.37 -108.12,-168.03 -92.36,-145.99 -221.02,-349.4 -370.88,-586.28l-3.67 -5.82 4.9 -4.9c102.49,-102.22 214.39,-213.8 330.88,-329.96 280.67,-277.78 534.67,-529.13 720.05,-712.61 91.76,-89.6 166.48,-162.53 219.67,-214.45 25.26,-24.13 45.37,-43.36 60.4,-57.69 13.93,-13.01 21.48,-19.65 21.94,-19.18 0.43,0.45 -6.24,7.94 -19.33,21.8 -14.39,14.95 -33.72,34.99 -57.93,60.07 -52.21,52.96 -125.51,127.31 -215.58,218.65 -184.4,184.44 -437.05,437.17 -716.21,716.39 -116.77,115.92 -228.91,227.29 -331.61,329.25l1.24 -10.73c147.56,238.27 274.28,442.88 365.23,589.7 43.71,71.87 78.77,129.44 103.93,170.76 11.18,18.93 20.14,34.14 27.05,45.88 6.04,10.52 8.96,16.1 8.51,16.37z"/>
  <path class="fil0" d="M5990.17 9648.08c0.21,0.21 -1.56,2.57 -5.15,6.95 -4.41,5.08 -9.81,11.32 -16.41,19.01 -15.17,15.98 -35.35,41.38 -60.64,74.61 -48.15,67.14 -111.55,174.45 -134.9,322.02 -24.13,146.68 -0.85,328.82 78.42,509.2 39.4,89.89 89.32,181.96 155.26,265.6 68.3,83.33 138.78,169.97 209.72,259.72 284.45,358.63 529.31,692.78 708.84,932.71 88.86,119.17 161.11,216.01 212.2,284.51 24.23,32.74 43.39,58.64 57.43,77.58 5.85,8.22 10.62,14.95 14.53,20.47 3.21,4.68 4.73,7.15 4.48,7.37 -0.28,0.16 -2.25,-1.94 -5.96,-6.24 -4.3,-5.2 -9.56,-11.55 -16.02,-19.31 -14.67,-18.48 -34.74,-43.67 -60.14,-75.53 -51.72,-65.92 -126.09,-161.78 -216.89,-281.02 -182.28,-238.02 -428.7,-570.87 -712.86,-929.15 -70.87,-89.64 -141.18,-176.24 -209.34,-259.82 -67.41,-86 -117.16,-178.75 -156.77,-270.19 -79.52,-183.16 -101.99,-368.9 -75.74,-518.02 25.47,-150 91.72,-257.81 141.99,-324.17 26.39,-32.84 47.59,-57.64 63.71,-72.88 7.13,-7.2 12.95,-13.02 17.75,-17.82 4.05,-3.91 6.24,-5.85 6.49,-5.6z"/>
  <path class="fil8" d="M7180.12 10103.69c0.57,1.69 -19.44,8.25 -52.6,25.82 -32.98,17.75 -78.42,48.37 -125.27,96.42 -47.13,47.73 -94.76,112.46 -141.18,188.48 -46.99,75.71 -93.91,162.85 -157.52,245.68 -62.68,83.5 -142.87,148.27 -225.28,186.3 -82.02,39.12 -163.83,54.96 -231.95,57.93 -68.4,3.17 -123.58,-5.75 -160.41,-15 -18.59,-4.12 -32.49,-9.24 -41.94,-12.59 -9.42,-3.35 -14.26,-5.4 -14.05,-6.03 0.71,-4.98 81,29.45 215.62,20.6 66.57,-4.48 146.09,-21.31 225.43,-60.18 79.76,-38 156.53,-100.4 218.05,-182.28 62.37,-81.14 109.64,-167.68 157.69,-243.39 47.56,-76.13 97.12,-141.25 146.37,-188.73 49,-47.84 96.66,-77.54 131.23,-93.59 17.39,-7.87 31.19,-13.27 40.89,-15.91 9.59,-2.9 14.71,-4.1 14.92,-3.53z"/>
  <path class="fil8" d="M6338.82 13205.64c-0.11,0.3 -2.93,-0.16 -8.33,-1.25 -6.45,-1.48 -14.29,-3.25 -23.88,-5.4 -10.37,-2.89 -23.53,-4.83 -39.05,-7.19 -15.42,-2.92 -33.45,-4.48 -53.77,-5.93 -81.14,-6.66 -200.3,3.49 -340.46,43.79 -70.06,20.1 -145.45,46.94 -223.84,81.81 -78.28,34.67 -159.49,78.24 -247.3,119.52 -87.8,40.95 -181.96,81.91 -285.15,107.94 -51.5,13.02 -105.13,22.34 -160.16,25.44 -55.03,2.5 -111.37,-0.91 -166.86,-12.17 -111.23,-22.75 -212.34,-70.42 -302.97,-124.81 -91.02,-54.43 -172.61,-115.85 -250.47,-173.18 -154.34,-115.82 -301.63,-212.27 -441.78,-253.4 -69.4,-21.52 -135.19,-30.24 -192.76,-31.58 -57.68,-0.74 -107.24,6.77 -146.47,17.19 -78.95,20.94 -115.89,49.77 -117.15,47.13 -0.17,-0.29 2.12,-1.95 6.78,-4.98 5.65,-3.46 12.53,-7.73 20.91,-12.98 19.11,-10.02 47.73,-24.94 87.54,-36.06 39.51,-11.61 89.79,-20.32 148.49,-20.56 58.53,0.38 125.56,8.29 196.36,29.42 143.19,40.25 293.05,137.02 448.1,252.16 78.24,57.02 159.56,117.8 249.66,171.38 89.71,53.55 189.09,100.12 297.39,122.24 54.01,10.93 108.66,14.32 162.28,11.92 53.66,-2.96 106.11,-11.92 156.7,-24.62 101.39,-25.29 194.81,-65.47 282.4,-105.84 87.6,-40.63 168.95,-83.67 248.36,-118.11 79.23,-34.53 155.54,-60.88 226.44,-80.39 141.86,-39.05 262.72,-47.34 344.53,-38.38 82.12,8.35 124.46,26.89 124.46,26.89z"/>
  <path class="fil8" d="M2851.64 12892.39c0.62,-0.06 1.6,4.1 2.91,12.14 1.23,8.05 3.2,19.9 4.11,35.35 2.4,30.76 3.57,75.99 -5.66,131.03 -8.84,54.7 -30.52,119.62 -73.36,180.43 -42.11,61.88 -108.77,112.19 -180.91,155.09 -72.4,43.32 -143.58,79.48 -201.81,121.82 -58.24,42.11 -106.33,86.77 -136.25,131.66 -30.63,44.69 -40.25,88.64 -40.68,118.66 -0.23,30.27 4.59,46.89 2.66,47.28 -0.61,0.18 -2.05,-3.85 -4.24,-11.75 -2.55,-7.83 -4.43,-19.8 -5.58,-35.42 -1.84,-31.08 6.34,-78.32 36.93,-125.83 29.87,-47.85 78.39,-94.59 137.18,-138.33 59.12,-44.03 130.78,-81 202.33,-123.83 71.53,-42.61 135.55,-90.48 176.62,-149.23 41.84,-57.8 64.1,-119.83 74.33,-172.95 10.62,-53.28 11.51,-97.8 11.3,-128.31 -0.19,-30.62 -1.45,-47.63 0.12,-47.81z"/>
  <path class="fil8" d="M8175.27 11432.18c1.27,4.76 -86.82,5.26 -209.27,65.4 -60.6,29.81 -128.23,76.31 -188.06,142.67 -29.6,33.27 -57.12,71.51 -79.62,114.37 -23.25,42.47 -39.27,90.91 -61.99,138.75 -21.94,48.08 -53.48,92.32 -92.99,124 -38.95,32.35 -82.8,54.81 -126.15,70.05 -87.24,30.81 -171.56,33.2 -239.93,29.81 -68.86,-3.62 -123.68,-12.91 -161.46,-19.18 -37.71,-6.6 -58.42,-11.12 -58.25,-12.32 0.18,-1.29 21.28,0.81 59.27,5.22 37.99,4.14 92.92,11.4 160.94,13.3 67.66,1.74 149.82,-2.15 233.71,-32.72 83.51,-29.26 167.78,-90.28 208.28,-186.03 22.09,-46.47 38.39,-95.32 62.62,-139.27 23.53,-44.21 52.18,-83.41 83.04,-117.35 62.24,-67.62 132.33,-114.08 194.91,-143.01 62.73,-29.35 117.55,-42.65 155.51,-48.68 18.94,-3.49 33.87,-4.34 43.99,-4.98 10.09,-0.63 15.42,-0.67 15.45,-0.03z"/>
  <path class="fil8" d="M6422.07 11729.92c0.07,0.32 -2.68,1.13 -8.08,2.4 -6.52,1.38 -14.42,3.1 -24.13,5.22 -21.16,4.66 -52.67,10.31 -93.38,16.69 -81.38,12.46 -200.34,26.57 -348.05,24.65 -147.14,-2.67 -324.73,-21.12 -509.76,-86.34 -92.64,-31.93 -184.89,-78.4 -277.21,-130.12 -92.68,-50.93 -187.79,-105.83 -292.7,-142.87 -52.39,-18.35 -105.98,-31.26 -159.56,-36.13 -53.59,-2.92 -107,-2.32 -158.33,7.87 -103.05,18.17 -197.35,58.35 -283.42,102.1 -171.21,90.73 -315.35,191.66 -445.24,261.83 -128.8,72.07 -243,112.96 -324.57,126.6 -40.34,9.61 -72.7,9.22 -94.35,10.45 -9.93,0.36 -18.03,0.67 -24.67,0.88 -5.55,0.11 -8.39,0 -8.39,-0.32 0,-0.31 2.84,-0.81 8.35,-1.54 6.61,-0.72 14.66,-1.63 24.5,-2.69 21.45,-2.43 53.41,-3.17 93.16,-13.79 80.33,-15.67 192.4,-57.85 319.65,-130.98 128.38,-71.12 271.39,-173 443.73,-265.47 86.74,-44.59 182.42,-85.87 288.14,-104.78 52.67,-10.58 107.81,-11.39 163.09,-8.36 55.35,5.01 110.46,18.24 163.94,37.01 107.21,37.82 202.95,93.38 295.34,144.45 92.22,51.87 182.85,97.91 274.18,129.9 182.46,65.3 358.21,85.02 504.37,89.29 146.72,3.6 265.36,-8.47 346.82,-18.74 40.74,-5.25 72.35,-9.77 93.73,-13.25 9.81,-1.38 17.81,-2.47 24.41,-3.39 5.5,-0.68 8.36,-0.88 8.43,-0.57z"/>
  <path class="fil8" d="M2973.53 11933.86c-2.58,-0.21 8.5,-20.35 -1.85,-54.35 -10.12,-33.38 -49.51,-73.88 -110.9,-90.68 -30.59,-9.13 -65.59,-14.36 -103.21,-22.96 -37.24,-8.57 -78.94,-22.27 -113.02,-51.96 -34.19,-28.93 -59.76,-69.18 -78.26,-112.93 -18.57,-44.1 -29.54,-92 -40.52,-140.16 -10.91,-48.29 -22.28,-94.75 -40.23,-137.05 -17.82,-42.3 -40.54,-80.72 -66.08,-114.26 -50.93,-67.56 -113.57,-114.2 -170.28,-143.51 -56.85,-29.81 -107.82,-43.22 -143.05,-50.17 -35.34,-7.16 -55.46,-8.54 -55.31,-10.37 0.05,-0.67 5.07,-0.78 14.67,-0.42 9.57,0.52 23.81,0.67 41.84,3.77 36.08,4.83 88.62,16.51 147.72,45.61 58.9,28.51 124.42,75.5 177.82,144.75 26.76,34.43 50.6,73.94 69.26,117.65 18.85,43.74 30.65,91.65 41.55,139.91 10.98,48.23 21.65,95.08 39.22,137.26 17.5,42.13 41.45,80.05 72.69,107.12 30.92,27.54 69.11,40.88 105.56,49.95 36.57,9.07 71.99,15.09 103.45,25.36 64.17,19.3 105.17,64.2 113.93,101.08 4.73,18.3 2.98,33.26 0.55,42.64 -2.71,9.39 -5.07,13.9 -5.55,13.72z"/>
  <path class="fil8" d="M5759.73 10124.43c-1.16,2.61 -33.51,-24.45 -103.64,-42.01 -34.96,-7.8 -79.59,-11.33 -129.9,-1.91 -50.41,8.36 -105.62,28.72 -164.53,55.35 -58.95,26.67 -121.11,61.17 -188.91,96.91 -67.84,35.24 -142.1,72.35 -226.77,94.05 -84.53,22.19 -178.01,24.02 -271.29,8.85 -93.38,-15.94 -186.58,-48.29 -276.57,-91.44 -180.2,-87.87 -330.06,-205.74 -474.84,-297.35 -143.65,-93.38 -284.1,-161.33 -410.92,-188.03 -126.23,-29.39 -233.14,-20.46 -303.03,-3.6 -70.28,17.32 -105.96,37.18 -106.86,35.03 0,0 34.41,-22.22 105.12,-41.94 70.23,-19.27 179.01,-30.38 307.54,-2.19 129.1,25.43 272.4,93.34 417.25,186.44 146.05,91.41 296.05,208.56 473.67,295.1 88.83,42.58 180.38,74.4 271.61,90.28 91.19,14.99 181.96,13.54 264.19,-7.55 82.48,-20.61 156.04,-56.66 223.87,-91.2 67.81,-34.96 130.74,-69 190.65,-95.25 59.79,-26.1 116.31,-45.96 168.17,-53.58 51.71,-8.68 97.71,-3.99 133.24,5.08 35.74,9.24 60.96,23.24 77.79,32.35 16.22,10.37 24.52,16.12 24.16,16.61z"/>
  <path class="fil2" d="M5560.62 14603.41c35.67,17.84 -3.88,-1.81 98.15,48.85l565.92 -1.09 114.13 -92.96 -412.51 -678.38c-50.27,21.93 -272.06,56.65 -343.43,81.86 -61.73,21.81 -126.89,32.43 -192.4,32.32 -69.18,-0.1 -158.19,-3.53 -217.66,-17.89 -4.87,-1.76 -11.05,-3.16 -15.31,-5.11 -10.27,-4.59 -20.43,-5.99 -30.38,-6.13 -61.21,-5.43 -109.68,58.46 -75.42,108.97 35.1,51.79 201.29,117.72 414.44,111.7 3.39,0.02 6.53,0.45 9.91,0.41 187.26,-0.21 15.53,156.71 -95.42,249.66 -39.13,32.78 -61.28,83.22 -53.59,133.64 2.96,19.4 10.2,36.68 24.98,46 47.3,29.67 208.59,-11.85 208.59,-11.85z"/>
  <path class="fil0" d="M3257.3 14518.95c-0.34,-0.03 -0.47,-3.42 -0.43,-10.05 0.14,-7.59 0.33,-17.25 0.56,-29.25 0.97,-27.03 2.32,-64.64 4,-112.33 4.18,-98.98 10.1,-239.75 17.41,-413.13 14.57,-350.03 34.65,-831.32 56.8,-1362.92 20.78,-532.49 36.72,-1014.52 45.25,-1363.53 3.65,-173.46 6.62,-314.32 8.7,-413.31 1.02,-47.77 1.83,-85.34 2.41,-112.4 0.46,-11.99 0.81,-21.59 1.09,-29.24 0.34,-6.56 0.69,-9.95 0.99,-9.95 0.32,0 0.61,3.39 0.88,9.95 0.19,7.65 0.43,17.25 0.75,29.24 0.23,27.06 0.58,64.67 1.03,112.43 0.97,97.65 -0.62,238.94 -2.87,413.53 -5.19,349.18 -19.1,831.46 -39.88,1363.98 -20.64,532.35 -43.78,1014.16 -62.19,1362.82 -9.75,173.28 -17.65,314 -23.22,412.85 -3.17,47.69 -5.65,85.23 -7.44,112.22 -0.98,11.95 -1.78,21.52 -2.41,29.14 -0.63,6.56 -1.12,9.95 -1.43,9.95z"/>
  <path class="fil0" d="M4792.84 14585.97c-0.32,0 -0.88,-4.41 -1.69,-13.09 -0.78,-9.59 -1.8,-22.32 -3.11,-38.51 -2.4,-35 -5.86,-84.74 -10.23,-148.31 -4.37,-64.42 -9.7,-143.26 -12.59,-234.89 -2.93,-91.68 -9.32,-195.96 -10.09,-311.39 -1.8,-115.42 -4.84,-241.86 -3.18,-377.65 0.5,-67.84 0,-138.08 1.48,-210.32 1.59,-72.33 3.28,-146.72 5.01,-222.99 8.86,-305.13 24.7,-640.4 49.22,-991.76 49.53,-702.95 112.32,-1337.6 152.54,-1797.34 19.82,-229.09 35.91,-414.87 47.13,-544.51 5.5,-63.47 9.81,-113.14 12.84,-148.06 1.59,-16.16 2.86,-28.86 3.81,-38.46 0.95,-8.67 1.59,-13.08 1.9,-13.05 0.32,0 0.29,4.48 -0.03,13.19 -0.5,9.6 -1.17,22.37 -1.98,38.6 -2.22,34.99 -5.39,84.74 -9.42,148.34 -8.22,128.8 -22.61,315.03 -41.31,545.04 -36.9,460.13 -97.65,1094.99 -147.14,1797.52 -24.52,351.15 -40.85,686.11 -50.66,990.99 -1.97,76.19 -3.88,150.52 -5.75,222.73 -1.73,72.25 -1.55,142.39 -2.43,210.19 -2.3,135.64 0,261.94 0.95,377.29 -0.04,115.36 5.43,219.61 7.37,311.22 1.91,91.65 6.21,170.46 9.46,234.88 2.92,63.64 5.22,113.46 6.77,148.49 0.56,16.23 0.99,28.99 1.34,38.62 0.18,8.71 0.11,13.21 -0.21,13.23z"/>
  <path class="fil0" d="M5052.48 11110.55c-1.73,-1.73 18.17,-10.16 39.9,8.82 9.77,9 19.69,24.59 17.29,44.56 -2.08,20.39 -21.52,37.39 -42.76,40.46 -21.06,3.99 -44.98,-5.79 -53.59,-24.41 -8.74,-18.1 -4.44,-36.02 1.87,-47.7 14.4,-25.01 35.95,-23.53 34.93,-21.31 0.95,2.72 -15.21,6.28 -23.18,26.89 -3.7,9.7 -4.97,23.35 1.34,34.15 5.79,10.9 20.43,16.79 35.63,14.28 15.14,-2.54 27.1,-12.87 29.04,-25.08 2.43,-12.24 -3.18,-24.73 -9.85,-32.74 -14.21,-16.86 -30.65,-15.03 -30.62,-17.92z"/>
  <path class="fil0" d="M4953.53 12693.96c-1.69,-1.77 18.2,-10.16 39.93,8.82 9.78,8.99 19.69,24.55 17.25,44.55 -2.08,20.39 -21.48,37.37 -42.72,40.47 -21.09,3.98 -44.98,-5.79 -53.58,-24.42 -8.79,-18.09 -4.45,-36.05 1.87,-47.72 14.39,-25.01 35.94,-23.54 34.89,-21.32 0.95,2.76 -15.17,6.33 -23.15,26.93 -3.74,9.7 -4.97,23.34 1.31,34.1 5.78,10.95 20.46,16.83 35.63,14.34 15.17,-2.62 27.13,-12.91 29.07,-25.1 2.43,-12.23 -3.18,-24.76 -9.84,-32.73 -14.22,-16.89 -30.66,-15.03 -30.66,-17.92z"/>
  <path class="fil8" d="M7483.97 13782.56c-0.14,1.09 -17.08,-0.49 -47.41,-5.99 -30.1,-6.32 -73.52,-17.72 -124.25,-39.84 -100.61,-43.21 -232.38,-135.6 -317.61,-283.74 -43.28,-73.45 -65.3,-151.72 -87.84,-219.94 -22.08,-68.7 -47.13,-128.43 -78.21,-172.7 -30.27,-44.76 -64.1,-73.52 -89.47,-89.64 -25.64,-16.02 -41.91,-21.37 -41.31,-22.96 0.22,-0.61 4.34,0.32 12.18,2.64 7.79,2.36 19.01,6.85 32.77,14.14 27.27,14.68 63.82,43.08 96.45,88.35 33.48,44.69 60.57,106 83.61,174.76 23.63,68.59 45.75,145.03 87.73,216.15 82.83,143.96 209.66,235.68 307.09,281.13 98.61,46.11 167.26,53.73 166.27,57.64z"/>
  <path class="fil4" d="M11098.35 14651.17l-599.05 -1740.46 277.43 -1670.23c80.78,-450.32 125.9,-847.55 4.9,-1073.61 -323.36,-604.17 -713.85,-658.28 -1247.35,-796.96 -110.03,-28.61 -947.14,-56.8 -1039.21,-34.22 -726.3,81.39 -1191.48,466.44 -1445.37,1092.24l-276.79 1114.43 -379.8 1165.61c-72.21,142.38 -190.89,240.69 -334.86,272.44l-1466.32 499.92 12.24 286.92 -12.24 386.96 1950.58 -366.11c391.2,-73.42 788.67,-217.63 900.64,-594.99l210.08 -621.36c102.73,263.07 214.31,504.23 214.31,504.23l-142.52 1567.46 3373.33 7.73z"/>
  <path class="fil4" d="M10596.03 11558.8l-557.46 1863.61c-86.36,288.72 -311.71,514.99 -600.07,602.58l-2319.83 618.29 -307.38 -800.99 2096.88 -779.46 514.67 -1866.48c0,0 118.85,-1043.24 1062.49,-989.65l110.7 1352.1z"/>
  <path class="fil0" d="M10485.33 10206.7c0,0 -9.56,0.39 -28.15,0.28 -6.98,0.25 -15.24,0 -24.76,-0.25 -15.84,-0.38 -35.18,-0.81 -57.83,1.1 -72.14,2.54 -181.01,12.84 -310.02,63.39 -64.17,25.3 -132.99,61.07 -200.13,112.01 -67.13,50.76 -132.22,116.42 -190.74,195.61 -115.96,158.83 -207.33,372.11 -244.62,618.21l-0.07 0.64 -0.11 0.35c-142.52,519.04 -317.11,1154.96 -512.62,1867.03l-1.13 4.14 -4.05 1.52c-643.44,239.43 -1351.74,503.02 -2096.6,780.16l5.36 -11.88c17.26,44.98 35.95,93.58 54.65,142.4 86.57,225.62 171.91,448.03 252.66,658.58l-10.83 -5.53c712.93,-189.66 1385.36,-368.52 1993.05,-530.17 75.96,-20.21 150.92,-40.07 224.83,-59.72 36.83,-10.02 73.83,-19.06 109.78,-29.71 35.49,-11.28 70.13,-24.51 103.68,-39.65 134.06,-60.96 247.94,-153.49 332.71,-261.97 42.37,-54.33 77.57,-112.6 105.51,-172.76 28.44,-60.11 47.24,-122.41 65.48,-184.21 37.01,-123.09 72.46,-240.99 106.29,-353.39 135.61,-449.15 244.58,-810.19 319.83,-1059.46 37.82,-123.99 67.13,-220.1 87.14,-285.71 10.02,-32.17 17.67,-56.8 23,-73.94 5.25,-16.58 8.39,-24.97 8.39,-24.97 0,0 -2.01,8.73 -6.73,25.49 -4.94,17.23 -12.03,41.99 -21.38,74.41 -19.3,65.86 -47.56,162.24 -84.03,286.59 -74.02,249.71 -181.16,611.26 -314.51,1061.1 -33.44,112.48 -68.54,230.53 -105.16,353.72 -17.96,61.42 -36.97,125.2 -65.65,186.23 -28.22,61.24 -63.85,120.47 -106.79,175.83 -85.86,110.45 -201.43,204.74 -337.68,267.09 -34.07,15.42 -69.32,28.99 -105.65,40.59 -36.27,10.83 -72.99,19.88 -109.93,29.96 -73.87,19.75 -148.76,39.79 -224.72,60.11 -607.59,162.28 -1279.95,341.77 -1992.77,532.13l-7.94 2.15 -2.92 -7.69c-80.83,-210.49 -166.2,-432.92 -252.8,-658.49 -18.74,-48.79 -37.36,-97.45 -54.65,-142.42l-3.32 -8.67 8.68 -3.26c745.07,-276.64 1453.55,-539.75 2097.16,-778.75l-5.19 5.68c197.07,-711.62 373.1,-1347.19 516.75,-1865.91l-0.17 0.95c38.52,-248.99 131.23,-462.67 249.09,-622.65 59.48,-79.69 125.56,-145.66 193.68,-196.46 68.05,-51.09 137.79,-86.72 202.67,-111.69 130.46,-49.99 239.99,-59.16 312.38,-60.54 22.76,-1.59 42.13,-0.78 58.04,0 9.49,0.46 17.78,0.92 24.76,0.88 18.59,0.71 28.08,1.52 28.08,1.52z"/>
  <path class="fil0" d="M9023.7 12643.86c0,1.27 -9.77,1.95 -27.73,2.09 -17.92,0.74 -43.85,-2.27 -75.31,-8.69 -62.69,-13.19 -147.01,-49.8 -220.14,-116.09 -73.48,-65.75 -120.72,-143.76 -143.15,-203.73 -6.25,-14.82 -10.55,-28.68 -13.69,-41.06 -3.56,-12.21 -6.21,-22.83 -7.23,-31.79 -2.79,-17.71 -3.67,-27.48 -2.44,-27.7 3.42,-0.66 9.77,38.35 35.32,95.54 24.94,57.19 72.35,131.37 143.43,195.05 70.84,64.13 150.85,101.06 211,117.16 60.43,16.05 100.08,15.52 99.94,19.22z"/>
  <path class="fil0" d="M7646.28 11226.3c1.2,0.49 -5.92,20 -19.65,54.85 -13.51,34.93 -34.08,85.06 -57.5,147.71 -45.76,124.71 -110.24,301.31 -116.98,504.65 -2.82,101.29 11.36,197.7 38.38,281.23 26.28,83.79 61.91,155.16 95.53,212.55 33.94,57.33 65.73,101.15 88.09,131.03 22.4,29.91 35.53,45.97 34.4,46.94 -0.5,0.43 -4.31,-3.05 -11.15,-10.26 -6.88,-7.12 -16.76,-17.81 -28.82,-32.23 -24.24,-28.65 -57.86,-71.62 -93.67,-128.77 -35.38,-57.18 -72.84,-128.98 -100.5,-214.1 -28.44,-84.85 -43.53,-183.63 -40.64,-286.88 6.98,-207.47 74.29,-384.96 123.26,-508.85 25.05,-62.3 47.48,-111.69 63.01,-145.84 15.8,-34.01 25.08,-52.56 26.24,-52.03z"/>
  <path class="fil0" d="M9112.29 13311.22c-5.47,1.86 -23.99,-74.19 -85.45,-144.36 -60.36,-71.08 -132.85,-100.59 -130.24,-105.73 0.77,-2.05 19.93,2.4 48.08,16.86 28.05,14.36 64.28,40.18 96.06,76.91 31.65,36.79 51.83,76.48 61.91,106.28 10.2,29.99 11.75,49.57 9.64,50.04z"/>
  <path class="fil9" d="M6854.08 13953.8c0,0 -663.61,59.2 -654.26,490.22l826.35 -41.77 -172.09 -448.45z"/>
  <path class="fil0" d="M7923.95 6730c-60.78,293.37 -118.67,587.34 -173.67,881.84 -69.71,373.42 -134.16,763.45 -28.64,1128.36 57.89,200.24 164.35,382.38 269.76,562.12 59.31,101.14 124.29,207.68 229.38,259.61 142.81,70.55 323.71,14.78 437.34,-96.88 113.59,-111.68 171.77,-267.68 210.93,-422.13 76.48,-301.38 93.27,-614.33 105.19,-925.05 12.07,-313.55 18.77,-633.24 -68.72,-934.58 -87.49,-301.31 -284.65,-586.46 -575.55,-704.04l-406.02 250.75z"/>
  <path class="fil0" d="M7971.68 6494.24c82.62,-64.56 185.6,-102.69 290.34,-107.56 84.6,-171.52 285.4,-249.94 473.15,-286.46 276.47,-53.79 246.45,-61.38 504.26,52.11 257.81,113.52 623.18,434.8 669.64,712.61 43.14,258.27 119.52,464.79 231.63,701.43 69.32,146.3 208.18,248.25 289.74,388.05 88.65,151.98 101.39,345.8 33.48,508.11 -66.54,158.93 -207.15,299.26 -193.89,471.03 7.69,99.59 4.09,171.1 43.46,262.89 133.78,311.89 71.34,727.67 -216.46,907.59 -287.83,179.92 -702.84,117.16 -924.6,-139.77 -192.61,-223.13 -229.94,-541.37 -210.78,-835.48 19.19,-294.15 85.9,-586.5 66.67,-880.61l-1056.64 -1753.94z"/>
  <path class="fil0" d="M8301.18 14642.99l-3.95 -101.5 -1496.03 -157.73 -655.49 -1884.29 -2807.03 -63.32 849.22 2206.84c1387.93,10.78 2759.35,11.03 4113.28,0z"/>
  <path class="fil10" d="M4896.24 13569.91c40.43,70.28 130.21,94.5 200.48,54.08 70.31,-40.43 94.51,-130.18 54.08,-200.44 -40.43,-70.31 -130.17,-94.55 -200.45,-54.09 -70.3,40.39 -94.54,130.18 -54.11,200.45z"/>
  <path class="fil9" d="M8982.5 10098.78c336.51,0 639.23,-286.84 629.5,-712.99l60.53 -2433.71c2.08,-105.55 -76.97,-195.19 -181.96,-206.27l-1003.2 -106.12c-345.65,-36.58 -651.61,222.36 -673.48,569.28 -24.31,385.37 -38.74,856.9 6.91,1144.45 91.83,578.27 535.02,651.86 535.02,651.86l-10.83 403.93c-17,430.46 305.12,689.57 637.51,689.57z"/>
  <path class="fil0" d="M8038.11 7522.7c-1.37,39.19 30.66,72.63 71.51,74.82 40.78,2.22 75.07,-27.69 76.45,-66.85 1.37,-39.16 -30.62,-72.67 -71.44,-74.86 -40.85,-2.22 -75.14,27.76 -76.52,66.89z"/>
  <path class="fil0" d="M7916.16 7454.26c9.2,9.63 65.37,-31.97 145.2,-31.75 79.69,-0.89 138.25,40.14 146.93,30.37 4.24,-4.3 -5.11,-21.8 -30.62,-40.36 -25.12,-18.45 -67.91,-36.44 -117.65,-36.23 -49.71,0.28 -91.51,18.56 -115.53,37.26 -24.56,18.87 -32.85,36.37 -28.33,40.71z"/>
  <path class="fil0" d="M8808.44 7537.62c-1.41,39.12 30.62,72.63 71.47,74.79 40.82,2.22 75.07,-27.7 76.45,-66.82 1.41,-39.19 -30.62,-72.71 -71.44,-74.89 -40.85,-2.19 -75.11,27.76 -76.48,66.92z"/>
  <path class="fil0" d="M8700.56 7469.14c9.21,9.63 65.47,-31.92 145.2,-31.71 79.73,-0.92 138.29,40.15 146.93,30.37 4.27,-4.37 -5.01,-21.8 -30.62,-40.35 -25.08,-18.49 -67.91,-36.48 -117.61,-36.27 -49.67,0.25 -91.51,18.56 -115.57,37.29 -24.45,18.8 -32.81,36.33 -28.33,40.67z"/>
  <path class="fil0" d="M8410.96 8060.93c0.36,-4.55 -49.24,-13.09 -129.61,-23.39 -20.39,-2.12 -39.69,-6.14 -43.11,-20.04 -4.79,-14.71 3.74,-36.69 13.62,-60.39 19.16,-49.36 39.19,-101.04 60.25,-155.19 83.72,-220.91 144.26,-402.59 135.33,-405.87 -8.92,-3.28 -84,173.11 -167.67,394.02 -20.15,54.46 -39.41,106.43 -57.72,156.1 -7.73,23.14 -20.99,49.42 -10.58,79.97 5.5,15.21 20.46,26.29 33.51,29.78 13.05,4.02 24.52,4.23 34.61,4.83 80.89,4.34 131.06,4.73 131.37,0.18z"/>
  <path class="fil11" d="M8355.82 9005.28c0,0 389.05,25.08 774.42,-206.62 0,0 -187.89,397.26 -766.62,343.14l-7.8 -136.52z"/>
  <path class="fil11" d="M8444.69 8253.26c28.71,-37.96 79.02,-58.81 128.94,-53.41 34.61,3.74 69.6,20.43 90.63,48.62 21.06,28.18 25.47,68.22 6.35,95.14 -21.56,30.27 -66.57,37.25 -104.64,26.46 -38.1,-10.83 -70.87,-35.92 -101.98,-60.89 -8.61,-6.92 -17.43,-14.11 -22.79,-23.6 -5.37,-9.46 -6.53,-21.87 0.1,-29.71l3.39 -2.61z"/>
  <path class="fil0" d="M8645.81 8116.1c-12.98,-0.7 -13.16,85.9 -87.28,147.36 -74.01,61.7 -166.37,51.96 -167.04,64.1 -1.2,5.43 20.57,16.79 59.55,17.85 38.2,1.34 94.05,-10.94 139.42,-48.54 45.22,-37.72 64.7,-88.06 67.62,-123.55 3.32,-36.23 -6.35,-57.68 -12.27,-57.22z"/>
  <path class="fil0" d="M8664.68 7329.41c7.87,21.69 87.56,11.39 181.15,22.68 93.88,9.42 169.37,36.83 181.79,17.36 5.54,-9.31 -7.62,-29.71 -38.14,-50.73 -30.26,-20.99 -78.52,-40.89 -134.76,-47.17 -56.2,-6.14 -107.67,2.79 -141.74,16.65 -34.4,13.83 -51.69,30.91 -48.3,41.21z"/>
  <path class="fil0" d="M7945.51 7223.29c14.04,18.14 69,-0.7 135.11,-1.58 66.08,-3.21 122.06,12.2 134.97,-6.78 5.65,-9.21 -3.17,-27.37 -27.65,-44.52 -24.06,-17.11 -64.39,-31.08 -109.82,-29.7 -45.41,1.44 -84.78,17.88 -107.78,36.4 -23.35,18.67 -31.04,37.33 -24.83,46.18z"/>
  <path class="fil0" d="M7825.78 7112.84c217.48,-126.3 429.78,-243.24 565.67,-454.84 75.29,212.06 222.04,316.9 416.67,429.86 194.63,112.93 412.47,178.51 628.05,243.1 -109.15,105.8 -123.58,276.97 -98.39,426.83 25.15,149.89 82.59,294.32 91.97,446.01 12.52,202.6 -61.56,401.25 -66.25,604.17 -6.42,278.17 116.56,540.95 236.82,791.81l522.36 -304.31 -75.22 -1356.67 6.28 -959.95 -814.31 -756.74 -1031.77 112.78 -381.88 777.95z"/>
  <path class="fil5" d="M8506.71 6556.4c85.72,-3.56 339.83,-0.03 623.53,377.79 169.69,225.99 169.58,592.46 165.74,911.72 -2.9,237.46 0,838.13 0,838.13 0,0 37.67,758.61 -220.28,825.89 -316.26,82.55 -593.65,25.72 -830.33,-199.74 -236.71,-225.43 -372.5,-541.87 -426.33,-864.31 -53.8,-322.4 -84.46,-651.16 -42.16,-975.29 25.05,-191.84 87,-400.93 193.99,-562.12 214.24,-322.93 535.84,-352.07 535.84,-352.07zm-797.1 3408.36c264.97,268.08 236.92,745.39 528.17,984.68 178.58,146.68 439.28,160.62 658.18,86.46 218.9,-74.12 403.44,-224.01 572.24,-381.81 168.84,-157.87 328.76,-327.83 521.06,-456.03 186.83,-124.53 506.2,-201.16 551.39,-421.08 33.09,-161.11 -135.96,-354.65 -167.82,-515.97 -50.59,-256.01 226.34,-454.06 272.59,-710.85 92.43,-513.04 -178.43,-1115.59 -460.51,-1553.99 -282.08,-438.39 -440.73,-928.75 -1156.06,-970.28 -640.39,-28.61 -1076.6,278.63 -1289.4,722.95 -106.71,222.82 -131.83,474.74 -152.58,720.94 -48.4,575.06 -75.1,1184.38 190.61,1696.72 55.07,106.11 120.69,240.56 46.57,334.33 -67.88,85.86 -221.41,82.26 -264.23,182.98 -44.38,104.46 70.02,200.24 149.79,280.95z"/>
  <path class="fil12" d="M10456.97 9469.5c-35.53,-71.93 -71.19,-142.88 -84.14,-208.49 -10.72,-54.19 -6.74,-105.8 6.6,-155.89 0.03,-0.08 0.07,-0.22 0.1,-0.29 0,0 -24.9,90.1 -3.56,167.82 13.44,48.93 53.31,137.76 81,196.85z"/>
  <path class="fil13" d="M9192.58 10396.74c-189.59,0 -379.73,-80.04 -470.01,-243.27 60.4,10.26 121.75,15.2 183.41,15.2 614.43,0 1267.78,-488.91 1473.45,-1063.55 -13.34,50.09 -17.32,101.7 -6.6,155.89 12.95,65.61 48.61,136.56 84.14,208.49 16.3,34.78 28.36,59.23 28.36,59.23 -212.02,115.18 -357.93,286.21 -530.4,454.91 -172.47,168.73 -364.52,331.96 -598.1,392.46 -52.99,13.73 -108.62,20.64 -164.25,20.64z"/>
  <path class="fil12" d="M7816.43 9509.72c0,-0.04 0,-0.04 0,-0.07 0,0 23.32,-28.19 33.76,-58.88 -5.29,17.6 -13.76,34.39 -26.14,50.06 -2.44,3.07 -4.98,6.03 -7.62,8.89zm38.31 -78.71c3.91,-36.26 -2.12,-76.62 -2.12,-76.62 0.04,0.17 0.07,0.35 0.11,0.49 4.83,26.11 6.07,51.75 2.01,76.13z"/>
  <path class="fil13" d="M8222.05 9969.99c-10.69,0 -21.38,-1.49 -31.43,-4.48 -42.3,-12.49 -75.74,-44.17 -107.46,-74.83 -115.25,-111.37 -234.24,-224.01 -266.73,-380.96 2.64,-2.86 5.18,-5.82 7.62,-8.89 12.38,-15.67 20.85,-32.46 26.14,-50.06 2.22,-6.53 3.84,-13.2 4.55,-19.69 0,-0.03 0,-0.07 0,-0.07 4.06,-24.38 2.82,-50.02 -2.01,-76.13 43,166.62 166.37,325.97 319.79,403.83 34.96,17.74 72.36,32.59 101,59.4 28.61,26.75 46.6,69.96 30.76,105.84 -13.58,30.72 -47.94,46.04 -82.23,46.04z"/>
  <path class="fil0" d="M10326.97 9230.1c0.56,0.29 -2.86,7.41 -9.91,20.61 -7.31,13.05 -17.08,32.91 -32.21,57.01 -28.82,49.03 -74.37,117.86 -136.7,198.36 -62.59,80.15 -142.35,172.12 -241.66,263.39 -99.44,90.59 -218.26,182.17 -359.72,249.38 -71.62,32.17 -143.62,55.91 -214.1,76.58 -70.45,20.53 -139.81,35.77 -206.49,46.01 -133.27,21.8 -255.83,22.04 -357.32,13.3 -101.57,-9.95 -182.39,-28.44 -236.75,-45.3 -27.52,-7.27 -47.98,-15.91 -62.16,-20.67 -14.04,-5.12 -21.31,-8.12 -21.13,-8.72 0.6,-1.66 30.41,8.33 85.19,22.51 54.65,14.64 135.22,31.04 235.94,39.23 100.68,7.02 221.79,5.43 353.52,-17.08 65.93,-10.58 134.48,-26 204.19,-46.56 69.56,-20.64 141.5,-44.56 211.35,-75.99 138.95,-66.01 256.89,-156.03 356.09,-245.22 99.09,-89.81 179.35,-180.23 242.89,-258.94 63.25,-79.02 110.2,-146.36 140.79,-194.06 16.02,-23.42 26.74,-42.69 35.07,-55.07 8.08,-12.63 12.59,-19.08 13.12,-18.77z"/>
  <path class="fil0" d="M8703.24 9884.37c0.25,1.02 -14.57,5.64 -42.05,10.93 -27.45,5.4 -67.84,10.34 -118.08,10.62 -99.69,1.13 -241.86,-23.28 -374.58,-102.87 -132.75,-79.66 -221.26,-193.57 -267.19,-282.08 -23.39,-44.41 -38.06,-82.41 -46.21,-109.15 -8.26,-26.78 -11.19,-41.94 -10.13,-42.26 3.49,-1.24 18.73,59.19 67.74,145.13 48.04,85.44 135.99,195.02 265.25,272.63 129.22,77.47 267.3,103.43 365.34,105.62 98.84,2.75 159.35,-12.28 159.91,-8.57z"/>
  <path class="fil0" d="M8565.69 10758.69c-0.07,-0.63 7.02,-2.47 20.57,-5.33 13.54,-3.14 33.76,-6.1 59.34,-12.2 51.43,-10.87 125.27,-29.6 214.17,-59.73 178.19,-59.05 413.1,-175.05 644.52,-344.52 231.67,-169.44 419.95,-349.96 555.63,-480.24 66.21,-64.34 120.44,-117.01 159.98,-155.43 17.89,-17.04 32.42,-30.94 43.92,-41.88 10.16,-9.41 15.74,-14.18 16.2,-13.72 0.42,0.46 -4.24,6.07 -13.59,16.34 -10.83,11.57 -24.55,26.24 -41.45,44.3 -36.33,38.17 -89.36,92.96 -155.96,159.67 -133.46,132.75 -320.89,315.35 -553.9,485.81 -232.83,170.53 -470.78,285.75 -651.26,341.98 -90.06,28.76 -164.82,45.69 -216.89,54.4 -25.89,5.08 -46.39,6.92 -60.11,8.93 -13.8,1.66 -21.1,2.22 -21.17,1.62z"/>
  <path class="fil4" d="M19276.52 13172.15l-73.59 -1711.64 991.94 1026.34 -918.35 685.3zm-3859.85 -799.86c0,-89.25 479.92,-651.96 741.61,-952.21l136.03 1299.24 -24.62 507.33 -853.02 -854.36zm5572.73 -873.33l-1244.75 -1467.8 -2.85 2.96c-49.14,-48.47 -92.01,-91.3 -113.81,-116.59 -431.34,-499.36 -773.85,-668.83 -1433.62,-679.49l-0.03 0 -1282.67 27.8c-238.44,19.51 -779.64,-82.48 -1280.23,581.1l-0.67 -1.31c-911.58,1142.75 -1643.1,2114.59 -1601.96,2573.09 52.07,580.36 2265.5,2235.1 2265.5,2235.1l3042.15 -2.69 -6.25 -231.62 1312.3 -850.62c473.53,-319.97 720.8,-599.34 780.7,-1023.51 53.13,-376.32 -179,-764.48 -433.81,-1046.42z"/>
  <path class="fil1" d="M18207.36 13904.52l-2248.89 1111.28c-59.76,29.49 -132.12,5.01 -161.65,-54.71l-726.82 -1470.95c-29.53,-59.69 -5.05,-132.04 54.71,-161.57l2248.89 -1111.32c59.73,-29.49 132.08,-4.97 161.57,54.72l726.87 1470.94c29.52,59.72 5.04,132.08 -54.68,161.61z"/>
  <path class="fil10" d="M16655.27 13477.23c65.59,-40.14 151.31,-19.58 191.46,45.93 40.18,65.56 19.61,151.27 -45.97,191.45 -65.51,40.14 -151.24,19.59 -191.38,-45.95 -40.22,-65.51 -19.62,-151.24 45.89,-191.43z"/>
  <path class="fil0" d="M19183.88 10241.24c0.32,0 0.63,3.74 0.95,11.14 0.21,8.36 0.53,19.2 0.92,32.81 0.42,30.06 0.95,72.32 1.73,126.09 0.74,110.77 1.87,268.88 3.21,463.76 2.08,391.51 17.39,932.18 47.73,1528.8 29.81,596.89 61.31,1137.07 77.82,1528.41 8.68,195.61 14.32,353.98 17.39,463.45 1.31,53.78 2.33,96.02 3.04,126.07 0.14,13.59 0.24,24.41 0.31,32.77 -0.03,7.42 -0.21,11.22 -0.52,11.22 -0.29,0 -0.75,-3.78 -1.34,-11.15 -0.53,-8.35 -1.27,-19.15 -2.16,-32.7 -1.51,-30.05 -3.7,-72.21 -6.45,-125.94 -5.54,-110.63 -13.48,-268.49 -23.25,-463.13 -21.31,-392.07 -50.69,-931.79 -83.19,-1528.05 -30.37,-596.83 -43.63,-1137.99 -42.4,-1529.72 1.13,-194.87 2.01,-353.02 2.65,-463.79 0.7,-53.77 1.3,-96.03 1.69,-126.09 0.39,-13.61 0.71,-24.45 0.95,-32.81 0.32,-7.4 0.6,-11.14 0.92,-11.14z"/>
  <path class="fil4" d="M16016.11 9473.7c162.38,-117.94 350.98,-82.27 513.58,35.35 162.56,117.61 253.04,317.53 269.34,517.52 16.3,200.03 -34.68,400.37 -111.05,585.93 -122.38,297.43 -303.57,538.02 -574.08,844.44l-697.23 915.35 1345.5 1313.65 -557.57 879.82 -1126.91 -906.73c-384.67,-325.03 -712.12,-657.41 -952.54,-1001.01l1890.96 -3184.32z"/>
  <path class="fil0" d="M14125.15 12658.02c0,0 3,3.37 8.36,10.47 5.61,7.58 13.44,18.09 23.6,31.78 20.75,28.08 51.69,69.53 93.81,122.02 83.53,105.49 212.3,254.9 389.22,430.32 88.51,87.67 189.02,181.79 301.2,280.61 111.26,99.76 238.37,199.25 372.53,306.92 268.36,215.36 569.6,457.12 895.99,719.1l-12.28 2.04c173.07,-273.47 361,-570.48 557,-880.14l1.31 11.25c-224.19,-218.82 -456.39,-445.41 -694.2,-677.5 -222.96,-217.75 -440.97,-430.68 -651.33,-636.11l-5.72 -5.61 4.83 -6.35c246.14,-322.68 480.28,-629.7 697.8,-914.92l0.21 -0.28 0.18 -0.21c136.31,-154.17 263.2,-306.36 368.4,-462.57 105.77,-155.75 186.2,-317.11 242.4,-475.89 56.05,-158.61 84.1,-316.94 75.98,-462.92 -7.4,-145.98 -52.95,-277.21 -118.95,-379.06 -66.08,-102.62 -154.73,-171.84 -239.26,-214.35 -84.66,-43.39 -167.25,-56.51 -232.44,-51.5 -65.62,5.71 -113.17,26.17 -142.98,42.26 -30.09,16.12 -44.1,27.2 -44.7,26.32 0,0 3.42,-2.82 10.58,-7.83 7.27,-4.8 17.5,-13.02 32.85,-20.85 29.56,-16.97 77.29,-38.53 143.79,-45.19 66.11,-5.93 150.25,6.63 236.36,49.84 85.83,42.27 176.43,112.05 244.12,215.83 67.6,103.01 114.41,235.83 122.63,383.83 8.89,147.95 -18.94,308.15 -74.97,468.17 -56.02,160.12 -136.63,322.93 -242.64,479.88 -105.44,157.41 -232.44,310.37 -368.68,465.03l0.35 -0.46c-217.17,285.5 -450.96,592.82 -696.67,915.81l-0.84 -11.92c210.43,205.39 428.52,418.25 651.54,635.91 237.7,232.18 469.8,458.86 693.92,677.76l5.22 5.09 -3.88 6.18c-196.4,309.41 -384.71,606.17 -558.13,879.46l-4.98 7.87 -7.3 -5.86c-325.83,-262.78 -626.5,-505.35 -894.33,-721.36 -133.74,-108.06 -260.63,-208.1 -371.75,-308.6 -111.91,-99.43 -212.09,-194.21 -300.22,-282.54 -176.25,-176.79 -304.02,-327.49 -386.33,-434.14 -41.52,-53.05 -71.79,-95.13 -91.82,-123.72 -9.74,-14.07 -17.18,-24.79 -22.55,-32.59 -5.01,-7.37 -7.23,-11.28 -7.23,-11.28z"/>
  <path class="fil0" d="M20676.91 12461.44c-1.31,2.75 -27.31,-8.67 -70.6,-21.76 -43.25,-12.88 -104.91,-25.69 -173.42,-22.34 -68.55,3.71 -128.52,22.86 -170.15,40.3 -41.66,17.64 -66.28,31.78 -67.87,29.21 -1.09,-1.69 21.17,-19.87 62.48,-41 41.13,-20.92 103.08,-43 174.59,-46.85 71.54,-3.53 135.36,11.99 178.5,28.36 43.29,16.62 67.42,32.32 66.47,34.08z"/>
  <path class="fil14" d="M17038.21 14524.69c-35.27,17.64 -143.82,71.55 -244.79,121.68 -121.39,60.25 -266.8,43.99 -371.9,-41.63l-153.21 -124.78 423.23 -665.69c49.74,21.67 254.07,50.63 324.66,75.54 61.07,21.59 125.55,32.1 190.32,31.99 68.44,-0.11 156.53,-3.53 215.38,-17.71 4.83,-1.72 10.93,-3.14 15.16,-5.04 10.16,-4.52 20.18,-5.93 30.03,-6.06 60.57,-5.38 108.48,57.81 74.61,107.8 -34.71,51.22 -199.14,116.49 -410.03,110.49 -3.32,0.03 -6.43,0.46 -9.81,0.46 -185.25,-0.25 -15.35,155.01 94.44,246.98 38.66,32.41 60.6,82.3 52.98,132.18 -2.92,19.23 -10.09,36.34 -24.69,45.51 -46.81,29.35 -206.38,-11.72 -206.38,-11.72z"/>
  <path class="fil14" d="M17604.7 9851.06c-324.52,0 -616.33,-276.57 -613.55,-688.51l-58.38 -2346.54 6.56 1.06c-1.97,-101.78 74.26,-188.17 175.47,-198.9l967.28 -102.3c333.27,-35.24 628.27,214.42 649.36,548.88 23.39,371.62 37.36,826.21 -6.67,1103.49 -88.54,557.53 -515.86,628.44 -515.86,628.44l10.44 389.5c16.4,415.08 -294.15,664.88 -614.65,664.88z"/>
  <path class="fil0" d="M18515.22 7367.26c1.34,37.75 -29.52,70.03 -68.93,72.14 -39.33,2.09 -72.39,-26.7 -73.73,-64.45 -1.3,-37.78 29.56,-70.09 68.86,-72.18 39.44,-2.15 72.46,26.74 73.8,64.49z"/>
  <path class="fil0" d="M18632.81 7301.26c-8.86,9.31 -63.01,-30.77 -139.99,-30.55 -76.83,-0.92 -133.31,38.63 -141.64,29.24 -4.09,-4.16 4.91,-21.02 29.53,-38.91 24.17,-17.85 65.44,-35.17 113.38,-34.96 47.95,0.28 88.23,17.92 111.45,35.98 23.63,18.14 31.64,35.03 27.27,39.2z"/>
  <path class="fil0" d="M17772.52 7381.62c1.34,37.75 -29.53,70.06 -68.97,72.14 -39.3,2.12 -72.32,-26.7 -73.69,-64.45 -1.34,-37.75 29.56,-70.06 68.9,-72.21 39.4,-2.12 72.42,26.77 73.76,64.52z"/>
  <path class="fil0" d="M17876.52 7315.58c-8.89,9.35 -63.11,-30.73 -140.02,-30.52 -76.83,-0.95 -133.31,38.67 -141.67,29.25 -4.1,-4.16 4.87,-21.03 29.52,-38.91 24.21,-17.82 65.52,-35.17 113.42,-34.96 47.91,0.28 88.23,17.92 111.41,35.98 23.6,18.13 31.68,35 27.34,39.16z"/>
  <path class="fil0" d="M18155.74 7886.23c-0.35,-4.41 47.45,-12.66 124.99,-22.57 19.62,-2.02 38.24,-5.93 41.52,-19.34 4.66,-14.21 -3.56,-35.38 -13.12,-58.24 -18.45,-47.56 -37.78,-97.37 -58.07,-149.58 -80.68,-213.01 -139.13,-388.16 -130.49,-391.37 8.61,-3.18 81,166.9 161.68,379.94 19.4,52.53 37.99,102.59 55.67,150.5 7.41,22.33 20.21,47.66 10.19,77.11 -5.32,14.68 -19.75,25.3 -32.31,28.72 -12.63,3.85 -23.67,4.06 -33.37,4.62 -78,4.2 -126.4,4.55 -126.69,0.21z"/>
  <path class="fil15" d="M18208.91 8796.68c0,0 -375.08,24.2 -746.69,-199.14 0,0 193.18,419.52 751.17,367.31l-4.48 -168.17z"/>
  <path class="fil0" d="M17911.13 7180.89c-7.62,20.88 -84.42,10.97 -174.7,21.87 -90.45,9.07 -163.26,35.53 -175.26,16.72 -5.32,-8.96 7.34,-28.64 36.8,-48.89 29.14,-20.25 75.74,-39.44 129.92,-45.48 54.16,-5.92 103.79,2.69 136.67,16.06 33.13,13.37 49.81,29.77 46.57,39.72z"/>
  <path class="fil0" d="M18604.51 7078.55c-13.51,17.46 -66.5,-0.67 -130.24,-1.52 -63.71,-3.1 -117.73,11.75 -130.14,-6.53 -5.47,-8.89 3.03,-26.38 26.63,-42.93 23.25,-16.47 62.09,-29.95 105.91,-28.64 43.81,1.41 81.77,17.25 103.92,35.13 22.51,17.96 29.92,35.99 23.92,44.49z"/>
  <path class="fil0" d="M16939.54 7349.23c94.72,-17.03 170.61,12.18 197.28,104.64 40.18,139.24 12.77,208.14 19.61,304.13 46.92,-14.08 93.84,-28.19 140.72,-42.23 -34.96,-321.45 44.84,-559.33 9.85,-880.74 196.07,63.43 465.56,-57.68 549.27,-260.95 164.01,124.39 402.41,141.14 582.15,40.92 51.83,98.32 170.33,131.51 239.54,112.04 107.03,-30.06 217.91,-180.45 248.57,-287.27 55.24,-192.3 28.29,-468.13 -127.6,-593.51 -155.93,-125.38 -468.6,-95.29 -590.02,63.71 -47.95,62.76 -53.55,178.9 -130.92,194.81 -68.58,14.07 -131.06,-36.83 -193.85,-67.84 -195.86,-96.81 -466.2,31.78 -514.67,244.82 -163.76,-97.57 -361.88,-161.36 -545.11,-108.72 -183.2,52.63 -329.07,255.48 -266.77,435.64 26,75.25 83.93,140.27 90.31,219.64 12.28,153.5 -171.63,292.49 -112.92,434.84 32.84,79.65 129.15,115 172.65,189.37 48.71,83.29 18.52,188.13 22.5,284.51 6.6,160.91 88.8,399.03 243.17,444.79l-33.76 -832.6z"/>
  <path class="fil14" d="M16953.58 7347.33c-57.36,5.5 -84.73,43.25 -106.57,85.12 -21.8,41.84 -28.86,90 -28.79,137.24 0.14,73.34 18.49,149.61 67.31,204.39 48.79,54.76 132.51,81.85 198.86,50.7l-130.81 -477.45z"/>
  <path class="fil15" d="M17049.86 7703.56c0.77,1.8 -20.78,9.67 -53.56,-2.11 -15.98,-5.86 -34,-17.22 -48.29,-35.35 -14.22,-18.1 -23.92,-42.44 -25.79,-68.69 -2.08,-26.21 3.63,-51.64 14.46,-71.75 10.69,-20.18 25.51,-35 39.48,-44.56 28.68,-19.26 51.26,-17.95 51.08,-15.98 0.74,2.93 -19.61,6.49 -43.21,26.32 -23.5,19.01 -47.8,57.89 -43.5,104.6 2.68,46.85 33.27,81.21 60.92,93.45 27.59,13.47 48.37,11.01 48.41,14.07z"/>
  <path class="fil8" d="M17910.77 8158.75c68.87,48.44 203.91,22.79 254.04,-48.75 -107.46,-58.6 -206.9,-131.83 -294.71,-217.06 0,0 -100.19,166.79 40.67,265.81z"/>
  <path class="fil11" d="M18138.95 8321.6c-3.1,4.34 -38.52,-21.66 -89.6,-21.17 -51.12,-0.92 -86.75,24.73 -89.82,20.35 -1.45,-1.72 5.4,-10.97 21.13,-20.6 15.52,-9.63 40.43,-18.2 68.76,-18.13 28.32,0.14 53.16,8.96 68.58,18.73 15.62,9.77 22.43,19.12 20.95,20.82z"/>
  <path class="fil16" d="M17280.11 10580.61c156.11,-217.52 327.03,-535.13 405.35,-684.57 145.73,-278.02 121.21,-292.17 86.25,-304.51 -94.02,-33.24 -274.74,478.89 -299.05,344.69 -24.17,-134.16 293.09,-598.77 193.5,-629.42 -129.75,-39.83 -309.28,499.96 -327.77,544.44 -18.02,43.22 -82.79,17.53 -63.92,-21.66 27.09,-56.37 297.29,-655.71 170.18,-696.14 -70.49,-22.36 -95.89,109.54 -95.89,109.54 0,0 -211.91,580.5 -271.32,559.37 -60.32,-21.42 52.74,-366.72 98.99,-480.28 45.72,-112.18 11.5,-180.9 -54.47,-161.18 -44.94,13.48 -194.76,357.65 -237.87,471.06 -43.18,113.39 -156.04,426.72 -224.58,223.84l-3.57 -9.14c-62.08,-201.61 -176.7,-336.37 -236.36,-352.81 -58.24,-16.01 -102.66,49.67 -78.1,105.34 3.28,9.21 7.83,18.31 15.38,26.49 3.14,3.36 6.46,8.72 9.63,12.7 32.35,51.16 63.85,133.5 85.94,198.27 20.92,61.34 31.71,125.73 30.83,190.5 -0.92,74.85 37.08,293.72 32.49,347.8l764.36 205.67z"/>
  <path class="fil5" d="M16481.43 10296.98l-853.3 1692.27c0,0 -482.57,-1396.15 -742.85,-1951.46 -99.41,-212.09 -298.06,-358.35 -489.09,-455.68l0 -3.81c-13.33,-5.51 -26.6,-10.55 -39.86,-15.91 -213.26,-101.96 -407.32,-143.34 -429.9,-147.96 -900.46,-257.67 -1748.58,-167.71 -2730.39,175.68 0,0 -509.73,137.13 -756.78,802.08 -222.57,599.09 -471.7,1516.06 -514.46,1679.05 -306,1029.4 130.92,1602.78 738.58,1532.15 250.54,-39.45 463.62,-245.43 557.88,-327.35l321.38 -302.04 7.06 233.92 -359.41 1444.34 3694.99 -7.69 -666.75 -1710.79 147.92 -784.23 253.61 602.72c161.36,383.54 532.91,636.52 948.91,646.15 423.79,9.82 812.41,-234.8 986.82,-621.27l864.24 -2175.27 -938.6 -304.9z"/>
  <path class="fil0" d="M12030.92 12406.48c1.02,0.75 -10.83,17.64 -33.16,47.52 -22.47,29.78 -55.74,72.32 -98.42,123.54 -84.95,102.84 -207.58,240.63 -349.82,386.2 -142.31,145.54 -277.67,270.92 -379.09,357.6 -50.56,43.53 -92.5,77.54 -122.1,100.22 -29.56,22.75 -46.28,34.82 -47.06,33.83 -0.81,-0.98 14.39,-14.95 42.54,-39.33 28.16,-24.38 68.69,-59.79 118.04,-104.45 98.99,-89.01 232.55,-215.49 374.55,-360.76 141.89,-145.23 265.71,-281.23 353.02,-381.7 43.89,-50.07 78.6,-91.27 102.77,-119.63 23.99,-28.43 37.74,-43.85 38.73,-43.04z"/>
  <path class="fil0" d="M14228.87 12879.03c-0.6,-0.11 0.1,-6.92 2.08,-19.77 2.47,-14.81 5.61,-33.33 9.42,-55.97 9.52,-51.02 22.47,-120.44 38.24,-205.18 32.6,-173.15 76.98,-412.43 112.47,-678.71 8.78,-66.6 16.86,-131.66 23.88,-194.63 7.55,-63.19 13.23,-123.12 10.09,-180.94 -5.19,-115.57 -26.95,-218.54 -45.44,-304.34 -19.05,-85.9 -36.58,-155.08 -46.25,-203.52 -4.97,-24.2 -7.87,-43.25 -9.24,-56.19 -0.95,-13.06 -1.17,-19.86 -0.5,-19.9 0.6,-0.04 2.05,6.63 4.2,19.37 2.51,12.66 6.49,31.29 12.53,55.14 11.71,47.76 31.18,116.38 51.93,202.17 20.14,85.76 43.46,189.02 49.67,306.53 3.74,58.7 -1.8,120.98 -9.11,183.66 -6.77,63.12 -14.74,128.38 -23.56,195.09 -35.53,266.87 -82.06,506.24 -117.9,678.81 -18.17,84.24 -33.05,153.35 -43.96,204.05 -5.22,22.4 -9.45,40.67 -12.87,55.28 -3.11,12.63 -5.05,19.18 -5.68,19.05z"/>
  <path class="fil0" d="M15551.86 12402.82c-4.98,-0.93 8.14,-93.74 29.31,-207.3 21.2,-113.63 42.41,-204.89 47.41,-203.98 5.01,0.92 -8.14,93.74 -29.35,207.33 -21.2,113.59 -42.4,204.9 -47.37,203.95z"/>
  <path class="fil0" d="M15682.17 12452.91c-5.08,0.59 -21.59,-105.97 -36.86,-237.99 -15.35,-132.04 -23.64,-239.53 -18.63,-240.13 5.04,-0.57 21.55,105.97 36.87,238.01 15.31,132.02 23.63,239.5 18.62,240.11z"/>
  <path class="fil0" d="M12956.54 14644.57c-5.08,0 -9.17,-567.16 -9.17,-1266.61 0,-699.7 4.09,-1266.75 9.17,-1266.75 5.08,0 9.21,567.05 9.21,1266.75 0,699.45 -4.13,1266.61 -9.21,1266.61z"/>
  <path class="fil17" d="M14391.11 12210.13c-7.69,-18.39 -13.9,-33.2 -18.31,-43.71 0.07,-0.39 0.14,-0.82 0.21,-1.25l18.56 44.14 -0.46 0.82z"/>
  <path class="fil17" d="M14694.68 12897.68c-1.66,0 -7.8,-10.79 -16.87,-28.78 5.54,9.7 11.22,19.24 17.08,28.69 0,0.03 0,0.03 0,0.03 -0.07,0.04 -0.11,0.06 -0.21,0.06zm-120.83 -255.22c-12.45,-28.38 -23.85,-54.68 -32.91,-76.16 -61.56,-145.68 -118.29,-280.89 -149.83,-356.17l0.46 -0.82 182.28 433.15z"/>
  <path class="fil18" d="M14694.89 12897.59c-5.86,-9.45 -11.54,-18.99 -17.08,-28.69 -23.99,-47.52 -68.33,-145.23 -103.96,-226.44l-182.28 -433.15 -18.56 -44.14c12.74,-77.52 25.05,-159.06 36.27,-243.33 8.82,-66.71 16.79,-131.97 23.56,-195.09 7.31,-62.68 12.85,-124.96 9.11,-183.66 -6.21,-117.51 -29.53,-220.77 -49.67,-306.53 -15.03,-62.12 -29.36,-115.25 -40.57,-157.93 169.29,326.42 315.41,652 328.82,1019.88 10.65,291.15 -105.9,533.75 14.36,799.11l0 -0.03z"/>
  <path class="fil19" d="M14372.8 12166.42c-4.9,-11.75 -7.58,-18.14 -7.58,-18.14 0,0 64.27,-498.64 69.56,-583.63 5.33,-84.92 -91.72,-502.68 -91.72,-502.68 2.9,5.58 5.75,11.08 8.65,16.66 11.21,42.68 25.54,95.81 40.57,157.93 20.14,85.76 43.46,189.02 49.67,306.53 3.74,58.7 -1.8,120.98 -9.11,183.66 -6.77,63.12 -14.74,128.38 -23.56,195.09 -11.22,84.27 -23.53,165.81 -36.27,243.33 -0.07,0.43 -0.14,0.86 -0.21,1.25z"/>
  <path class="fil18" d="M10051.24 12779.82c-18.84,0 -86.54,-431.72 -2.15,-549.52 67.8,-94.57 184.5,-140.05 297.28,-168.73 112.82,-28.65 231.07,-46.53 331.3,-105.73 129.36,-76.37 211.06,-210.54 302.19,-329.99 91.08,-119.49 211.34,-626.35 361.2,-637.08l0 739.88c-352.53,221.9 -725.48,444.93 -1115.37,625.55 0,0 -170.22,133.99 -169.97,394.55 0.03,21.52 -1.69,31.07 -4.48,31.07z"/>
  <path class="fil18" d="M11542.64 12974l23.99 -27.84c134.97,-139.07 251.18,-269.91 332.71,-368.62 42.68,-51.22 75.95,-93.76 98.42,-123.54 18.35,-24.56 29.63,-40.37 32.49,-45.61l197.63 -229.24 725.52 8.14c-1.62,81.54 -3.03,224.42 -4.09,408.36 -21.94,0.59 -43.92,0.84 -65.9,0.84 -61.49,0 -123.12,-1.97 -184.72,-3.96 -61.55,-1.97 -123.08,-3.95 -184.43,-3.95 -94.15,0 -187.89,4.65 -280.67,21.03 -273.01,48.19 -449.51,228.71 -690.95,364.39zm1421.13 -378.82c-1.06,-183.65 -2.47,-326.35 -4.09,-407.81l29.49 0.32c14.68,134.62 29.39,269.2 44.06,403.82 -23.14,1.7 -46.28,2.9 -69.46,3.67z"/>
  <path class="fil19" d="M11566.63 12946.16l463.62 -537.77c-2.86,5.24 -14.14,21.05 -32.49,45.61 -22.47,29.78 -55.74,72.32 -98.42,123.54 -81.53,98.71 -197.74,229.55 -332.71,368.62z"/>
  <path class="fil19" d="M12949.31 12595.65c1.06,-183.94 2.47,-326.82 4.09,-408.36l6.28 0.08c1.62,81.46 3.03,224.16 4.09,407.81 -4.83,0.18 -9.63,0.32 -14.46,0.47z"/>
  <path class="fil0" d="M11341.03 10979.71c5.08,0 9.21,164.88 9.21,368.26 0,203.37 -4.13,368.27 -9.21,368.27 -5.05,0 -9.17,-164.9 -9.17,-368.27 0,-203.38 4.12,-368.26 9.17,-368.26z"/>
  <path class="fil0" d="M10054.8 12744.72c-2.11,0.11 -6.31,-24.83 -3.98,-65.51 2.15,-40.5 12.66,-96.65 37.25,-154.02 24.8,-57.29 58.42,-103.53 86.36,-132.95 27.97,-29.58 48.96,-43.69 50.34,-42.06 4.41,4.02 -72.53,70.31 -119.8,182.28 -48.86,111.22 -44.24,212.69 -50.17,212.26z"/>
  <path class="fil0" d="M10206.88 12361.43c0.57,1.23 20.32,-6.07 55.6,-20.32 35.35,-14.11 85.87,-36.02 147.67,-64.34 123.65,-56.56 291.61,-140.95 470.4,-245.57 178.72,-104.88 333.94,-209.91 443.12,-289.81 54.65,-39.94 98.18,-73.14 127.53,-96.91 29.46,-23.67 45.33,-37.26 44.49,-38.31 -0.88,-1.06 -18.35,10.48 -49.25,32.24 -33.94,23.74 -78.03,54.61 -131.13,91.76 -111.12,76.87 -267.05,179.74 -445.17,284.19 -178.15,104.32 -344.45,190.34 -466.23,249.91 -58.56,28.31 -107.24,51.83 -144.67,69.89 -34.22,16.4 -52.92,26.04 -52.36,27.27z"/>
  <path class="fil0" d="M11294.92 7928.64l0.35 -2.12 3.71 -1.55 -4.06 3.67zm3547.5 -109.12c-60.54,-79.41 -156.85,-139.73 -175.15,-237.88 -24.31,-130.24 104.42,-252.27 81.95,-382.83 -15.35,-89.36 -97.76,-151.94 -181.47,-186.62 -83.75,-34.68 -175.3,-51.33 -253.4,-97.33 -93.77,-55.25 -160.09,-148.84 -202.07,-249.24 -11.72,-27.94 -21.42,-56.55 -30.17,-85.51 -9.49,-62.23 -20.85,-125.2 -42.68,-183.23 -2.93,-15.56 -5.93,-31.12 -8.79,-46.68l3.81 34.19c-11.92,-29.28 -26.53,-57.29 -45.68,-82.87 -64.53,-86.01 -193.75,-133.91 -282.58,-73.41l42.16 -28.51c-103.96,-258.72 -352.64,-453.6 -628.72,-492.69 -52.92,-7.51 -106.43,-9.13 -159.63,-5.47 -190.01,-9.77 -464.89,45.76 -580.92,119.28 -148.2,93.91 -299.97,222.88 -374.19,381.85 -40.04,85.83 -67.03,184.75 -142.56,241.86 -100.9,76.34 -242.57,46.74 -368.27,60.92 -207.64,23.43 -387.45,182.67 -458.68,379.06 -71.22,196.4 -41.03,421.61 57.75,605.69 21.84,40.78 47.63,87.56 30.34,130.42 -13.37,33.2 -48.15,51.44 -79.2,69.29 -81.88,47.06 -156.98,113.24 -192.19,200.87 -35.21,87.63 -21.77,198.89 49.42,260.91 57.72,50.34 143.37,57.86 215.48,30.91 -20.57,53.34 -32.91,109.39 -33.09,166.65 -0.32,124.53 62.72,252.62 173.14,310.2 110.46,57.57 265.12,27.12 330.1,-79.1 -1.03,155.75 89.07,308.79 225.74,383.47 136.7,74.65 314.11,67.81 444.64,-17.18 52.35,-34.11 106.01,-81.95 167.71,-72.07 60.36,9.59 96.56,69.53 138.93,113.56 113.03,117.33 305.47,131.09 453.99,64.17 148.51,-66.96 257.88,-199.85 336.69,-342.44 54.39,81.59 157.48,127.88 254.63,114.26 97.16,-13.58 183.59,-86.32 213.5,-179.77 130.78,167.42 390.7,216.36 573.41,107.98 124.39,-73.8 201.75,-213.89 212.05,-357.33 116.21,-18.24 222.6,-95.25 273.09,-201.86 56.37,-118.95 40.71,-268.78 -39.09,-373.52z"/>
  <path class="fil16" d="M13532.77 8815.34c0,0 451.66,-75 545.29,-664.31 46.53,-293.09 31.78,-773.64 7.05,-1166.46 -22.29,-353.56 -334.15,-617.43 -686.43,-580.18l-1022.39 108.16c-107.07,11.33 -187.61,102.66 -185.49,210.22l107.46 2560.46c-74.51,15.98 -243.53,52.85 -326.25,76.8 0,0 790.93,1767.63 984.53,1747.13 193.57,-20.49 967.67,-1693.15 967.67,-1693.15 0,0 -164.68,-52.6 -409.89,-100.47 -4.1,-270.76 18.45,-498.2 18.45,-498.2z"/>
  <path class="fil0" d="M13856.55 7304.36c1.44,39.94 -31.19,74.01 -72.85,76.27 -41.59,2.19 -76.52,-28.26 -77.93,-68.15 -1.41,-39.94 31.22,-74.05 72.81,-76.31 41.63,-2.22 76.56,28.29 77.97,68.19z"/>
  <path class="fil0" d="M13980.87 7234.55c-9.39,9.87 -66.64,-32.53 -147.96,-32.28 -81.24,-0.96 -140.97,40.88 -149.79,30.9 -4.34,-4.37 5.22,-22.19 31.22,-41.1 25.58,-18.84 69.22,-37.18 119.88,-36.97 50.65,0.28 93.27,18.95 117.79,38.03 25.01,19.19 33.48,37.01 28.86,41.42z"/>
  <path class="fil0" d="M13071.51 7319.53c1.41,39.9 -31.26,74.01 -72.92,76.27 -41.56,2.22 -76.48,-28.22 -77.89,-68.16 -1.41,-39.89 31.22,-74.04 72.81,-76.27 41.63,-2.29 76.59,28.26 78,68.16z"/>
  <path class="fil0" d="M13181.44 7249.75c-9.42,9.84 -66.75,-32.52 -148.03,-32.28 -81.21,-0.95 -140.93,40.85 -149.75,30.91 -4.34,-4.41 5.15,-22.19 31.22,-41.1 25.57,-18.88 69.21,-37.19 119.87,-36.97 50.66,0.28 93.28,18.9 117.76,37.99 24.94,19.19 33.51,37.04 28.93,41.45z"/>
  <path class="fil0" d="M13476.57 7852.93c-0.39,-4.66 50.2,-13.37 132.12,-23.85 20.74,-2.15 40.42,-6.28 43.88,-20.42 4.94,-15.03 -3.77,-37.43 -13.83,-61.56 -19.54,-50.27 -39.97,-102.94 -61.45,-158.19 -85.27,-225.14 -147,-410.28 -137.94,-413.63 9.1,-3.35 85.66,176.42 170.92,401.57 20.53,55.56 40.18,108.48 58.85,159.1 7.86,23.6 21.37,50.38 10.79,81.53 -5.64,15.48 -20.85,26.74 -34.18,30.34 -13.3,4.05 -24.98,4.3 -35.25,4.9 -82.44,4.44 -133.59,4.8 -133.91,0.21z"/>
  <path class="fil20" d="M13532.77 8815.34c0,0 -396.49,25.54 -789.27,-210.53 0,0 191.45,404.84 781.29,349.67l7.98 -139.14z"/>
  <path class="fil20" d="M13247.55 7980.14c18.66,-11.32 38.06,-22.96 59.72,-25.68 21.7,-2.68 46.46,6.14 55.39,26.07 3.07,6.7 4.23,14.39 8.57,20.36 11.75,16.22 36.87,10.47 56.09,16.05 30.24,8.78 42.72,48.57 31.19,77.86 -11.5,29.28 -39.87,48.64 -68.97,60.71 -39.72,16.4 -83.71,22.4 -126.4,17.32 -29.74,-3.6 -61.07,-14.08 -78.14,-38.74 -20.36,-29.42 -13.72,-71.12 6.21,-100.85 20,-29.74 50.8,-50.13 80.71,-69.78l-24.37 16.68z"/>
  <path class="fil0" d="M13237.21 7909.16c13.23,-0.74 13.41,87.53 88.97,150.18 75.42,62.87 169.55,52.95 170.25,65.3 1.2,5.54 -20.99,17.15 -60.68,18.2 -39.01,1.34 -95.88,-11.14 -142.13,-49.49 -46.07,-38.42 -65.93,-89.71 -68.93,-125.91 -3.35,-36.9 6.49,-58.77 12.52,-58.28z"/>
  <path class="fil0" d="M13217.98 7107.37c-8,22.08 -89.21,11.61 -184.6,23.11 -95.68,9.59 -172.62,37.53 -185.28,17.67 -5.68,-9.49 7.76,-30.27 38.87,-51.68 30.84,-21.38 80.05,-41.7 137.34,-48.08 57.25,-6.25 109.71,2.82 144.46,16.96 35.07,14.12 52.71,31.51 49.21,42.02z"/>
  <path class="fil0" d="M13950.95 7050.78c-14.29,18.45 -70.34,-0.7 -137.69,-1.58 -67.34,-3.28 -124.42,12.38 -137.55,-6.92 -5.78,-9.42 3.21,-27.9 28.12,-45.4 24.59,-17.39 65.69,-31.64 111.97,-30.27 46.29,1.48 86.4,18.24 109.82,37.15 23.81,18.98 31.64,37.99 25.33,47.02z"/>
  <path class="fil0" d="M13740.31 6316.94c-43.85,208.17 -174.63,396.59 -354.3,510.43 -179.7,113.84 -405.94,151.62 -612.84,102.34 -31.01,258.45 -208.28,494.31 -447.89,595.98 162.67,292.99 230.26,637.76 190.29,970.46 -17.18,142.77 -58.7,291.96 -165.77,387.95 -163.59,146.58 -439.7,111.02 -597.04,-42.19 -150.78,-146.79 -204.05,-377.16 -161.4,-583.25 42.62,-206.02 171.94,-387.42 334.65,-520.88 -136.14,-23.31 -254.89,-128.37 -294.68,-260.59 -39.79,-132.22 1.31,-285.36 101.95,-379.87 46.46,-43.71 104.81,-76.27 139.81,-129.58 32.98,-50.34 40.85,-112.54 60.96,-169.26 52.74,-148.49 185.49,-251.39 311.75,-345.62 106.93,-79.87 224.19,-163.26 357.57,-162.91 71.23,0.18 141.93,24.76 212.48,15.24 97.02,-13.12 172.65,-86.64 253.01,-142.49 113.32,-78.74 253.48,-127.14 389.75,-105.8 136.28,21.38 263.78,123.3 289.49,258.84l-7.79 1.2z"/>
  <path class="fil0" d="M13687.81 6375.22c-20.85,113.77 36.76,230.54 120.58,310.26 83.82,79.73 191.1,129.3 296.27,177.49 -41.35,-110.88 -83.47,-223.21 -152.55,-319.3 -69,-96.1 -169.36,-175.69 -286.35,-193.47l22.05 25.02z"/>
  <path class="fil8" d="M11095.53 7733.94c0,0 -5.68,-12.24 -3.14,-36.9 2.29,-24.17 16.55,-60.79 52.88,-91.09 35.95,-31.18 95.11,-46.78 160.8,-43.99 66.04,0.99 139.28,21.94 220.03,17.04 79.87,-4.73 165.1,-52.25 214.56,-132.79 25.47,-39.86 37.36,-88.05 40.14,-138.57 3.32,-50.66 -1.16,-103.57 1.7,-158.64 2.15,-54.58 15.69,-113.63 51.5,-161.08 34.82,-47.94 86.18,-82.3 141.15,-106.05 111.05,-50.2 237.81,-51.11 359.2,-73.76 60.92,-11.33 120.15,-28.96 171.23,-59.97 51.3,-30.62 92.61,-74.23 127.53,-120.69 68.83,-94.61 114.94,-200.27 178.16,-290.09 61.8,-91.3 145.8,-159.38 233.08,-202.92 87.49,-43.95 178.57,-64.17 261.55,-65.54 83.15,-1.2 157.86,14.43 219.42,37.39 61.99,22.3 110.92,51.93 148.49,78.67 74.72,54.86 103.93,97.9 103.93,97.9 -0.25,0.21 -2.61,-1.94 -7.06,-6.28 -5.15,-5.12 -11.5,-11.47 -19.44,-19.37 -17.53,-16.51 -43.88,-40.53 -81.56,-66.43 -74.08,-50.83 -199.42,-112.67 -363.47,-108.9 -81.1,2.19 -169.93,22.68 -255.02,66.15 -84.95,43.21 -166.12,109.64 -226.06,199 -61.67,88.23 -107.28,193.92 -177.52,291.08 -35.77,47.76 -78.7,93.45 -132.61,125.69 -53.65,32.63 -115.21,50.8 -177.23,62.37 -124.07,22.93 -248.43,23.85 -355.43,72.21 -53.09,22.79 -101.74,55.43 -134.19,99.95 -33.38,44.02 -46.32,98.35 -48.76,151.62 -3.03,53.41 1.17,106.57 -2.5,158.75 -3.03,51.86 -16.05,103.68 -43.29,145.52 -52.74,84.56 -142.7,133.56 -226.66,137.73 -84.1,4.05 -156.7,-17.96 -221.26,-19.72 -64.24,-3.67 -121.04,10.4 -155.93,39.29 -35.49,28.23 -50.3,62.83 -53.69,86.01 -3.67,23.64 0.74,36.34 -0.53,36.41z"/>
  <polygon class="fil0" points="11972.01,10457.1 12009.16,11396.97 12103.95,12296.52 13103.23,12253.91 13031.36,10477.35 "/>
  <polygon class="fil4" points="11825.15,10453.86 11862.47,11396.97 11957.26,12296.52 12956.54,12253.91 12884.57,10474.56 "/>
  <path class="fil16" d="M11731.48 12406.48c267.69,-5.04 624.42,-58.14 791.04,-84.77 309.98,-49.53 306.63,-77.64 295.63,-113.07 -29.67,-95.18 -548.12,66.32 -455.12,-33.36 93.02,-99.66 655.14,-123.41 620.11,-221.52 -45.69,-127.82 -585.65,51.26 -632.35,63.04 -45.41,11.44 -63.61,-55.84 -20.89,-64.18 61.35,-11.98 703.26,-154.08 659.59,-280.09 -24.17,-69.86 -145.1,-11.33 -145.1,-11.33 0,0 -591.92,177.49 -610.55,117.27 -18.94,-61.14 325.4,-177.13 444.08,-208.04 117.22,-30.47 151.83,-98.99 96.59,-140.05 -37.72,-27.98 -403.12,57.89 -519.82,91.2 -116.63,33.26 -435.29,130.28 -313.73,-46.04l5.22 -8.33c124.43,-170.32 163.83,-342.79 141.29,-400.47 -21.98,-56.24 -101.21,-52.53 -131.13,0.42 -5.43,8.15 -9.98,17.25 -12.03,28.19 -0.81,4.55 -3.06,10.37 -4.44,15.31 -21.59,56.55 -68.72,131.02 -107.39,187.5 -36.68,53.44 -81.84,100.61 -134.23,138.71 -60.57,44.03 -213.18,205.4 -259.25,234.07l292.48 735.54z"/>
  <polygon class="fil5" points="11502.25,11617.49 12030.92,12406.48 11159.91,13294.85 11189.41,11854 "/>
 </g>
</svg>
